<svg xmlns="http://www.w3.org/2000/svg" version="1.1" xmlns:xlink="http://www.w3.org/1999/xlink" xmlns:svgjs="http://svgjs.dev/svgjs" width="1500" height="250" viewBox="0 0 1500 250"><g transform="matrix(1,0,0,1,-0.9090909090911055,-0.7896033645435239)"><svg viewBox="0 0 396 66" data-background-color="#000000" preserveAspectRatio="xMidYMid meet" height="250" width="1500" xmlns="http://www.w3.org/2000/svg" xmlns:xlink="http://www.w3.org/1999/xlink"><g id="tight-bounds" transform="matrix(1,0,0,1,0.24000000000003752,0.20845528823949167)"><svg viewBox="0 0 395.5199999999999 65.583089423521" height="65.583089423521" width="395.5199999999999"><g><svg viewBox="0 0 518.2242441033472 85.92927523884103" height="65.583089423521" width="395.5199999999999"><g transform="matrix(1,0,0,1,122.70424410334732,11.875898386844167)"><svg viewBox="0 0 395.52 62.177478465152696" height="62.177478465152696" width="395.52"><g id="textblocktransform"><svg viewBox="0 0 395.52 62.177478465152696" height="62.177478465152696" width="395.52" id="textblock"><g><svg viewBox="0 0 395.52 62.177478465152696" height="62.177478465152696" width="395.52"><g transform="matrix(1,0,0,1,0,0)"><svg width="395.52" viewBox="-0.24 -37.7 249.38 39.21" height="62.177478465152696" data-palette-color="url(#052a9e14-0927-4bf2-aa22-24f0cad1cc49)"><g class="wordmark-text-0" data-fill-palette-color="primary" id="text-0"></g></svg></g></svg></g></svg></g></svg></g><g><svg viewBox="0 0 108.02563369720794 85.92927523884103" height="85.92927523884103" width="108.02563369720794"><g><svg xmlns="http://www.w3.org/2000/svg" xmlns:xlink="http://www.w3.org/1999/xlink" version="1.1" x="0" y="0" viewBox="14.265999999999998 21.575 71.47 56.851" enable-background="new 0 0 100 100" xml:space="preserve" height="85.92927523884103" width="108.02563369720794" class="icon-icon-0" data-fill-palette-color="accent" id="icon-0"></svg></g></svg></g></svg></g><defs></defs><mask id="01b32d2b-96a3-4e17-82f5-7154e687cde6"><g id="SvgjsG1766"><svg viewBox="0 0 395.5199999999999 65.583089423521" height="65.583089423521" width="395.5199999999999"><g><svg viewBox="0 0 518.2242441033472 85.92927523884103" height="65.583089423521" width="395.5199999999999"><g transform="matrix(1,0,0,1,122.70424410334732,11.875898386844167)"><svg viewBox="0 0 395.52 62.177478465152696" height="62.177478465152696" width="395.52"><g id="SvgjsG1765"><svg viewBox="0 0 395.52 62.177478465152696" height="62.177478465152696" width="395.52" id="SvgjsSvg1764"><g><svg viewBox="0 0 395.52 62.177478465152696" height="62.177478465152696" width="395.52"><g transform="matrix(1,0,0,1,0,0)"><svg width="395.52" viewBox="-0.24 -37.7 249.38 39.21" height="62.177478465152696" data-palette-color="url(#052a9e14-0927-4bf2-aa22-24f0cad1cc49)"><g class="wordmark-text-0" data-fill-palette-color="primary" id="SvgjsG1763"><path d="M13.38-36.33L13.38-36.33Q13.72-35.69 13.72-34.86L13.72-34.86Q13.72-34.13 13.43-33.3 13.13-32.47 12.5-32.03L12.5-32.03Q12.06-31.05 11.65-30.44 11.23-29.83 10.84-29.25L10.84-29.25Q10.69-28.91 10.55-28.59 10.4-28.27 10.16-27.93L10.16-27.93Q10.01-27.69 9.52-26.95 9.03-26.22 8.52-25.42 8.01-24.61 7.62-23.88 7.23-23.14 7.23-22.95L7.23-22.95Q7.23-22.75 7.69-22.46 8.15-22.17 8.3-22.02L8.3-22.02Q8.54-21.78 8.76-21.53 8.98-21.29 9.23-21.04L9.23-21.04Q9.77-20.61 10.28-20.17 10.79-19.73 11.33-19.19L11.33-19.19Q12.35-18.26 13.48-17.43 14.6-16.6 15.48-15.48L15.48-15.48Q16.31-15.23 16.55-14.31 16.8-13.38 16.7-12.55L16.7-12.55Q16.8-12.4 16.87-12.26 16.94-12.11 17.04-11.91L17.04-11.91Q17.04-11.13 16.82-10.77 16.6-10.4 16.36-9.86L16.36-9.86Q16.11-9.38 16.04-8.89 15.97-8.4 15.72-8.01L15.72-8.01Q15.63-7.86 15.45-7.76 15.28-7.67 15.19-7.47L15.19-7.47Q14.99-7.13 14.87-6.67 14.75-6.2 14.55-5.81L14.55-5.81Q14.4-5.42 14.18-5.03 13.96-4.64 13.82-4.25L13.82-4.25Q13.72-4 13.65-3.66 13.57-3.32 13.18-3.17L13.18-3.17Q12.94-2.29 12.52-1.46 12.11-0.63 11.87 0.24L11.87 0.24Q11.43 0.39 10.77 0.81 10.11 1.22 9.72 1.22L9.72 1.22Q9.57 1.22 9.47 1.07 9.38 0.93 9.18 0.83L9.18 0.83Q9.08 0.78 8.91 0.83 8.74 0.88 8.64 0.88L8.64 0.88Q8.4 0.88 8.28 0.68 8.15 0.49 7.96 0.39L7.96 0.39Q7.81 0.44 7.67 0.49 7.52 0.54 7.37 0.54L7.37 0.54Q7.03 0.54 6.98 0.37 6.93 0.2 6.69 0.05L6.69 0.05Q6.1-0.24 6.01-0.49 5.91-0.73 5.71-0.83L5.71-0.83Q6.05-2.1 6.64-3.25 7.23-4.39 7.76-5.57L7.76-5.57Q7.91-5.96 8.13-6.3 8.35-6.64 8.54-7.03L8.54-7.03Q8.69-7.37 8.98-7.91 9.28-8.45 9.52-9.03 9.77-9.62 9.96-10.13 10.16-10.64 10.16-10.99L10.16-10.99Q10.16-11.67 9.77-12.01L9.77-12.01Q8.35-13.18 7.1-14.4 5.86-15.63 4.49-16.89L4.49-16.89Q3.61-17.68 2.59-18.51L2.59-18.51Q2.39-18.65 2.29-18.95 2.2-19.24 2-19.48L2-19.48Q1.9-19.68 1.71-19.78 1.51-19.87 1.42-20.07L1.42-20.07Q1.27-20.26 1.22-20.53 1.17-20.8 0.93-20.95L0.93-20.95Q0.68-21.19 0.34-21.24 0-21.29-0.24-21.53L-0.24-21.53Q-0.1-21.68-0.12-21.85-0.15-22.02-0.15-22.17L-0.15-22.17Q-0.15-22.51 0.15-22.66 0.44-22.8 0.44-23.19L0.44-23.19Q0.63-23.58 0.73-23.68L0.73-23.68Q1.27-25 1.95-26.22 2.64-27.44 3.37-28.66L3.37-28.66Q3.61-29.05 3.83-29.42 4.05-29.79 4.3-30.18L4.3-30.18Q4.44-30.52 4.57-30.79 4.69-31.05 4.93-31.3L4.93-31.3Q5.62-32.08 6.08-32.76 6.54-33.45 6.79-34.42L6.79-34.42Q6.84-34.67 6.98-35.11 7.13-35.55 7.35-35.99 7.57-36.43 7.81-36.77 8.06-37.11 8.35-37.11L8.35-37.11Q8.59-37.11 9.06-36.91 9.52-36.72 9.86-36.62L9.86-36.62Q10.16-36.52 10.47-36.45 10.79-36.38 11.08-36.38L11.08-36.38Q11.28-36.38 11.47-36.5 11.67-36.62 11.91-36.62L11.91-36.62Q12.3-36.62 12.65-36.5 12.99-36.38 13.38-36.33ZM40.43-34.91L40.43-34.91Q40.33-34.72 40.35-34.52 40.38-34.33 40.38-34.08L40.38-34.08Q40.28-33.5 40.38-33.5 40.48-33.5 40.48-33.4L40.48-33.4 40.13-32.91Q40.13-32.62 40.01-32.37 39.89-32.13 39.94-31.79L39.94-31.79Q39.79-31.54 39.67-31.3 39.55-31.05 39.3-30.81L39.3-30.81 38.67-30.81Q38.13-30.81 37.52-30.74 36.91-30.66 36.33-30.66L36.33-30.66Q36.23-30.66 36.08-30.69 35.94-30.71 35.79-30.71L35.79-30.71Q35.69-30.71 35.54-30.69 35.4-30.66 35.2-30.66L35.2-30.66Q34.47-30.66 33.76-30.74 33.05-30.81 32.27-30.81L32.27-30.81Q32.08-30.81 31.88-30.81 31.69-30.81 31.44-30.76L31.44-30.76Q31.39-29.93 31.37-29.08 31.35-28.22 31.35-27.34L31.35-27.34Q31.35-27.1 31.3-26.83 31.25-26.56 31.25-26.32L31.25-26.32Q31.2-25.68 31.17-25.1 31.15-24.51 31.15-23.88L31.15-23.88Q31.15-22.51 31.17-21.14 31.2-19.78 31.25-18.36L31.25-18.36Q31.3-17.63 31.35-16.94 31.39-16.26 31.39-15.53L31.39-15.53Q31.39-13.87 31.35-12.23 31.3-10.6 31.3-8.94L31.3-8.94Q31.3-8.4 31.25-7.93 31.2-7.47 31.2-6.93L31.2-6.93Q31.2-5.81 31.25-4.69 31.3-3.56 31.3-2.44L31.3-2.44Q31.3-1.9 31.27-1.37 31.25-0.83 31.25-0.29L31.25-0.29Q31 0.1 30.91 0.39 30.81 0.68 30.32 0.68L30.32 0.68Q29.98 0.59 30 0.46 30.03 0.34 29.93 0.24L29.93 0.24Q29.49 0.2 29.27 0.32 29.05 0.44 28.76 0.54L28.76 0.54Q28.61 0.49 28.44 0.49 28.27 0.49 28.12 0.49L28.12 0.49Q28.02 0.49 27.93 0.56 27.83 0.63 27.49 0.63L27.49 0.63Q27.19 0.68 27.15 0.54 27.1 0.39 26.85 0.39L26.85 0.39Q26.61 0.54 26.29 0.61 25.97 0.68 25.68 0.68L25.68 0.68Q25.39 0.49 25.41 0.32 25.44 0.15 25.34-0.05L25.34-0.05Q25.29-0.15 25.17-0.32 25.05-0.49 24.95-0.59L24.95-0.59Q25.05-1.27 25.1-1.81 25.14-2.34 25.14-2.98L25.14-2.98Q25.14-4.25 25.05-5.47 24.95-6.69 24.95-7.96L24.95-7.96Q24.95-8.35 25.05-8.79 25.14-9.23 25.14-9.72L25.14-9.72Q25.05-10.11 25.1-10.18 25.14-10.25 25.14-10.35L25.14-10.35Q25.14-10.64 25.12-10.94 25.1-11.23 25.1-11.52L25.1-11.52Q25.1-12.11 25.12-12.7 25.14-13.28 25.14-13.87L25.14-13.87Q25.14-14.11 25.12-14.38 25.1-14.65 25.1-14.89L25.1-14.89Q25.05-15.33 25.07-15.82 25.1-16.31 25.1-16.8L25.1-16.8Q25.1-19.14 25.02-21.44 24.95-23.73 24.95-26.07L24.95-26.07Q24.95-27.25 25.07-28.39 25.19-29.54 25.19-30.71L25.19-30.71Q25.19-30.86 25.1-31.1 25-31.35 24.9-31.45L24.9-31.45Q24.66-31.45 24.44-31.47 24.22-31.49 23.97-31.49L23.97-31.49Q23.43-31.49 22.95-31.35L22.95-31.35Q22.02-31.3 21.16-31.23 20.31-31.15 19.43-31.1L19.43-31.1Q18.85-31.15 18.72-31.13 18.6-31.1 18.45-31.1L18.45-31.1Q18.06-31.1 17.87-31.3L17.87-31.3 17.87-31.93Q17.58-32.52 17.62-32.57 17.67-32.62 17.67-32.71L17.67-32.71Q17.67-32.86 17.4-33.03 17.14-33.2 17.14-33.59L17.14-33.59Q17.09-33.98 16.94-34.18 16.79-34.38 16.79-34.57L16.79-34.57Q16.79-34.91 16.94-35.35L16.94-35.35Q17.38-35.6 17.8-35.69 18.21-35.79 18.75-35.94L18.75-35.94Q19.04-36.04 19.28-36.13 19.53-36.23 19.82-36.28L19.82-36.28Q20.16-36.33 20.51-36.33 20.85-36.33 21.19-36.38L21.19-36.38Q21.92-36.52 22.73-36.62 23.53-36.72 24.27-36.72L24.27-36.72Q24.95-36.72 25.63-36.55 26.32-36.38 26.85-36.38L26.85-36.38Q27.63-36.38 28.34-36.28 29.05-36.18 29.83-36.18L29.83-36.18Q29.93-36.18 30.15-36.11 30.37-36.04 30.66-36.04L30.66-36.04 35.4-36.04Q35.79-35.94 35.96-35.99 36.13-36.04 36.28-36.04L36.28-36.04Q36.67-36.04 37.01-35.99 37.35-35.94 37.74-35.94L37.74-35.94Q38.08-35.94 38.28-35.99L38.28-35.99Q38.67-35.94 39.01-35.77 39.35-35.6 39.79-35.6L39.79-35.6Q39.99-35.45 40.09-35.23 40.18-35.01 40.43-34.91ZM66.45-19.38L66.45-19.38Q66.35-19.19 66.25-19.02 66.16-18.85 66.11-18.65L66.11-18.65Q66.3-18.46 66.47-18.24 66.65-18.02 66.65-17.77L66.65-17.77Q66.65-17.58 66.57-17.41 66.5-17.24 66.55-17.09L66.55-17.09Q66.35-16.75 66.13-16.46 65.91-16.16 65.82-15.82L65.82-15.82Q65.62-15.63 65.5-15.43 65.38-15.23 65.28-15.04L65.28-15.04Q65.03-14.94 64.96-14.72 64.89-14.5 64.69-14.36L64.69-14.36Q64.64-14.16 64.2-13.43 63.76-12.7 63.23-11.87 62.69-11.04 62.2-10.25 61.71-9.47 61.52-9.23L61.52-9.23Q61.42-8.98 61.3-8.84 61.18-8.69 61.03-8.5L61.03-8.5Q60.93-8.35 60.88-8.18 60.83-8.01 60.74-7.91L60.74-7.91Q60.64-7.71 60.52-7.57 60.4-7.42 60.3-7.18L60.3-7.18Q59.81-6.54 59.32-5.66 58.83-4.79 58.39-4.1L58.39-4.1Q58.15-3.71 57.93-3.32 57.71-2.93 57.47-2.54L57.47-2.54Q57.22-2.15 56.98-1.81 56.73-1.46 56.49-1.07L56.49-1.07Q56.1-0.78 55.81-0.37 55.51 0.05 55.12 0.34L55.12 0.34Q54.49 0.34 54.34-0.24L54.34-0.24Q53.71-0.39 53.71-0.24 53.71-0.1 53.71 0L53.71 0Q53.51 0.1 53.44 0.29 53.36 0.49 53.17 0.59L53.17 0.59Q52.78 0.49 52.51 0.27 52.24 0.05 51.75 0.1L51.75 0.1Q51.56-0.2 51.31-0.42 51.07-0.63 50.87-0.88L50.87-0.88Q50.78-1.17 50.61-1.37 50.43-1.56 50.29-1.76L50.29-1.76Q50.14-2 50-2.2 49.85-2.39 49.7-2.59L49.7-2.59Q49.36-3.03 49.04-3.44 48.73-3.86 48.48-4.3L48.48-4.3Q48.09-4.88 47.72-5.49 47.36-6.1 46.97-6.69L46.97-6.69Q46.77-6.98 46.58-7.28 46.38-7.57 46.24-7.86L46.24-7.86Q46.14-8.11 45.97-8.45 45.8-8.79 45.55-8.89L45.55-8.89Q45.45-9.28 45.21-9.47 44.97-9.67 44.72-9.96L44.72-9.96Q44.38-10.35 44.09-10.82 43.79-11.28 43.5-11.77L43.5-11.77Q42.52-13.13 41.67-14.45 40.82-15.77 39.99-17.19L39.99-17.19Q40.23-17.97 40.23-18.36 40.23-18.75 40.47-18.99L40.47-18.99Q40.47-19.19 40.57-19.58L40.57-19.58Q41.21-20.65 41.79-21.53L41.79-21.53Q42.33-22.36 42.55-22.9 42.77-23.44 43.01-24.02L43.01-24.02Q43.26-24.17 43.4-24.39 43.55-24.61 43.79-24.8L43.79-24.8Q43.89-25.34 44.23-25.71 44.58-26.07 44.67-26.61L44.67-26.61Q45.11-26.95 45.16-27.39L45.16-27.39Q45.8-27.83 45.94-28.56L45.94-28.56Q46.33-28.96 46.6-29.44 46.87-29.93 47.11-30.47L47.11-30.47Q47.7-30.96 48.04-31.74L48.04-31.74Q48.33-31.93 48.48-32.28 48.63-32.62 48.87-32.86L48.87-32.86Q49.26-33.5 49.48-33.91 49.7-34.33 49.95-34.77L49.95-34.77Q50.29-34.77 50.39-35.01 50.48-35.25 50.78-35.21L50.78-35.21Q50.78-35.64 51.02-35.99L51.02-35.99Q51.12-36.04 51.31-36.11 51.51-36.18 51.51-36.28L51.51-36.28Q51.41-36.87 51.56-36.96 51.7-37.06 51.8-37.16L51.8-37.16Q52.34-37.06 52.53-37.01 52.73-36.96 53.17-36.67L53.17-36.67Q53.66-36.67 53.85-36.47 54.05-36.28 54.29-36.18L54.29-36.18Q54.49-35.99 54.61-35.79 54.73-35.6 54.98-35.5L54.98-35.5Q55.37-34.96 55.81-34.33 56.25-33.69 56.64-33.15L56.64-33.15Q57.17-32.42 57.73-31.76 58.3-31.1 58.78-30.32L58.78-30.32Q58.93-30.08 59.32-29.47 59.71-28.86 60.2-28.17 60.69-27.49 61.08-26.93 61.47-26.37 61.62-26.27L61.62-26.27Q61.76-26.03 62.25-25.34 62.74-24.66 63.3-23.9 63.86-23.14 64.4-22.46 64.94-21.78 65.13-21.58L65.13-21.58Q65.67-20.85 65.94-20.39 66.21-19.92 66.45-19.38ZM55.27-10.21L55.27-10.21Q55.81-10.94 56.1-11.52 56.39-12.11 56.68-12.7L56.68-12.7Q57.17-13.28 57.27-13.53 57.37-13.77 57.51-14.01L57.51-14.01Q57.91-14.6 58.32-15.19 58.74-15.77 58.98-16.46L58.98-16.46Q59.27-16.65 59.42-16.94 59.57-17.24 59.86-17.48L59.86-17.48Q59.57-18.51 59.17-19.07 58.78-19.63 58.39-20.17L58.39-20.17Q58.25-20.41 58.1-20.65 57.95-20.9 57.81-21.14L57.81-21.14Q57.61-21.29 57.49-21.44 57.37-21.58 57.22-21.73L57.22-21.73Q57.12-21.97 56.93-22.36L56.93-22.36Q56.73-22.61 56.54-22.8 56.34-23 56.2-23.29L56.2-23.29Q56-23.49 55.71-23.83 55.41-24.17 55.1-24.58 54.78-25 54.54-25.37 54.29-25.73 54.15-25.98L54.15-25.98Q54.05-26.22 53.97-26.39 53.9-26.56 53.8-26.76L53.8-26.76Q53.56-27.1 53.32-27.37 53.07-27.64 52.83-27.98L52.83-27.98Q52.68-27.88 52.56-27.86 52.44-27.83 52.34-27.73L52.34-27.73Q52-27.1 51.58-26.56 51.17-26.03 50.78-25.39L50.78-25.39Q50.43-24.8 50.09-24.19 49.75-23.58 49.41-23L49.41-23Q49.16-22.66 48.95-22.34 48.73-22.02 48.48-21.63L48.48-21.63Q48.24-21.29 48.07-20.92 47.9-20.56 47.65-20.21L47.65-20.21Q47.26-19.73 47.02-19.34 46.77-18.95 46.53-18.41L46.53-18.41Q46.67-18.12 46.99-17.6 47.31-17.09 47.65-16.58 47.99-16.06 48.26-15.63 48.53-15.19 48.58-15.04L48.58-15.04Q48.97-14.7 49.21-14.28 49.46-13.87 49.85-13.48L49.85-13.48Q50.04-13.09 50.29-12.79 50.53-12.5 50.78-12.16L50.78-12.16Q51.02-11.82 51.41-11.16 51.8-10.5 52.19-9.81 52.58-9.13 52.97-8.54 53.36-7.96 53.61-7.81L53.61-7.81Q54.1-8.35 54.41-9.01 54.73-9.67 55.27-10.21ZM91.35-4.69L91.35-4.69Q91.3-3.96 91.67-3.59 92.03-3.22 92.28-2.69L92.28-2.69Q92.18-2 92.42-1.61L92.42-1.61Q92.28-1.32 92.13-0.95 91.98-0.59 91.69-0.34L91.69-0.34Q90.91 0 90.76 0.24 90.62 0.49 90.18 0.49L90.18 0.49Q89.93 0.73 89.64 1 89.35 1.27 89.1 1.51L89.1 1.51Q88.86 1.42 88.76 1.27 88.66 1.12 88.47 0.88L88.47 0.88Q87.98 0.73 87.59 0.37 87.2 0 86.91-0.46 86.61-0.93 86.35-1.44 86.08-1.95 85.88-2.39L85.88-2.39Q85.2-3.66 84.49-4.96 83.78-6.25 83.05-7.52L83.05-7.52Q82.66-8.15 82.29-8.81 81.93-9.47 81.54-10.16L81.54-10.16Q81.44-10.25 81.34-10.38 81.24-10.5 81.14-10.64L81.14-10.64Q80.8-11.13 80.63-11.74 80.46-12.35 79.92-12.74L79.92-12.74Q79-12.84 78.24-12.48 77.48-12.11 76.9-11.52L76.9-11.52Q76.95-11.18 76.95-10.89 76.95-10.6 76.95-10.3L76.95-10.3Q76.95-9.18 76.85-8.15 76.75-7.13 76.75-6.01L76.75-6.01Q76.75-5.52 76.8-5 76.85-4.49 76.95-4L76.95-4Q76.8-3.47 76.8-2.83L76.8-2.83Q76.8-2.49 76.87-2.2 76.95-1.9 76.95-1.56L76.95-1.56Q76.95-1.07 76.63-0.9 76.31-0.73 76.41-0.29L76.41-0.29Q75.82-0.05 75.29 0.2 74.75 0.44 74.16 0.54L74.16 0.54Q73.92 0.59 73.67 0.56 73.43 0.54 73.23 0.63L73.23 0.63Q72.99 0.73 72.84 1 72.7 1.27 72.45 1.27L72.45 1.27Q72.16 1.27 72.11 1.05 72.06 0.83 71.92 0.68L71.92 0.68Q71.67 0.59 71.53 0.59 71.38 0.59 71.23 0.44L71.23 0.44Q71.28 0 71.04-0.22 70.79-0.44 70.79-1.12L70.79-1.12Q70.79-1.66 70.87-2.15 70.94-2.64 70.94-3.17L70.94-3.17Q70.94-3.61 70.82-3.98 70.7-4.35 70.6-4.79L70.6-4.79Q70.55-4.98 70.6-5.18 70.65-5.37 70.65-5.57L70.65-5.57Q70.65-6.45 70.57-7.35 70.5-8.25 70.5-9.13L70.5-9.13Q70.5-9.47 70.5-9.77 70.5-10.06 70.55-10.35L70.55-10.35Q70.65-10.64 70.72-10.84 70.79-11.04 70.79-11.33L70.79-11.33Q70.79-12.26 70.6-13.16 70.4-14.06 70.4-14.94L70.4-14.94Q70.4-15.43 70.43-15.94 70.45-16.46 70.45-16.94L70.45-16.94Q70.45-18.36 70.4-19.73 70.35-21.09 70.35-22.46L70.35-22.46Q70.35-23.44 70.4-24.39 70.45-25.34 70.45-26.32L70.45-26.32Q70.45-27.54 70.35-28.74 70.26-29.93 70.26-31.2L70.26-31.2Q70.26-31.64 70.21-31.79 70.16-31.93 70.06-31.96 69.96-31.98 69.84-32.01 69.72-32.03 69.62-32.18L69.62-32.18Q69.62-32.47 69.87-32.59 70.11-32.71 70.11-33.4L70.11-33.4Q70.11-33.79 70.04-34.18 69.96-34.57 69.96-34.96L69.96-34.96Q69.96-35.55 70.21-36.13 70.45-36.72 70.65-37.26L70.65-37.26Q71.23-37.3 71.45-37.26 71.67-37.21 71.92-37.3L71.92-37.3Q72.06-36.77 72.55-36.74 73.04-36.72 73.43-36.62L73.43-36.62Q73.87-36.57 74.28-36.4 74.7-36.23 75.09-36.23L75.09-36.23Q75.19-35.94 75.51-35.82 75.82-35.69 76.16-35.6L76.16-35.6Q76.56-35.64 76.77-35.94 76.99-36.23 77.39-36.23L77.39-36.23Q77.68-36.23 78.07-35.82 78.46-35.4 78.65-35.16L78.65-35.16Q78.85-35.01 79.39-34.52 79.92-34.03 80.56-33.52 81.19-33.01 81.73-32.54 82.27-32.08 82.41-32.03L82.41-32.03Q84.42-30.03 86.15-28.39 87.88-26.76 89.93-25.44L89.93-25.44Q89.98-25.29 90.06-25.2 90.13-25.1 90.23-24.95L90.23-24.95Q90.23-24.56 90.08-24.37 89.93-24.17 89.93-23.88L89.93-23.88Q89.93-23.73 90.01-23.58 90.08-23.44 90.08-23.29L90.08-23.29Q90.13-23.1 90.1-22.92 90.08-22.75 90.08-22.56L90.08-22.56Q90.08-22.07 90.4-21.68 90.72-21.29 90.72-20.8L90.72-20.8Q90.62-20.36 90.32-20.26 90.03-20.17 89.84-20.02L89.84-20.02Q89.74-19.92 89.67-19.78 89.59-19.63 89.49-19.53L89.49-19.53Q88.42-19.04 87.93-18.63 87.44-18.21 86.91-17.82L86.91-17.82Q86.76-17.72 86.42-17.5 86.08-17.29 85.73-17.07 85.39-16.85 85.12-16.6 84.86-16.36 84.86-16.21L84.86-16.21Q84.86-15.87 85.27-15.26 85.69-14.65 85.88-14.31L85.88-14.31Q86.42-13.43 86.86-12.57 87.3-11.72 87.83-10.89L87.83-10.89Q88.81-9.38 89.67-7.81 90.52-6.25 91.35-4.69ZM83.39-22.85L83.39-22.85Q82.27-24.27 80.97-25.42 79.68-26.56 78.51-27.83L78.51-27.83 77.97-27.93Q77.68-28.42 77.31-28.78 76.95-29.15 76.56-29.54L76.56-29.54Q76.6-29 76.6-28.52 76.6-28.03 76.6-27.49L76.6-27.49Q76.6-25.93 76.53-24.44 76.46-22.95 76.46-21.44L76.46-21.44Q76.46-19.92 76.6-18.55L76.6-18.55Q77.63-18.55 78.46-19.14L78.46-19.14Q78.8-19.38 79.09-19.65 79.39-19.92 79.73-20.17L79.73-20.17Q80.12-20.41 80.63-20.75 81.14-21.09 81.66-21.44 82.17-21.78 82.63-22.14 83.1-22.51 83.39-22.85ZM115.27-34.57L115.27-34.57Q114.74-33.59 114.05-32.28 113.37-30.96 112.98-29.98L112.98-29.98Q112.83-29.64 112.71-29.32 112.59-29 112.44-28.66L112.44-28.66Q112.2-27.93 111.83-27.27 111.46-26.61 111.17-25.88L111.17-25.88Q110.73-24.9 110.27-23.9 109.8-22.9 109.37-21.83L109.37-21.83Q108.88-20.85 108.61-20.14 108.34-19.43 108.05-18.7 107.75-17.97 107.53-17.26 107.31-16.55 107.17-15.97L107.17-15.97Q106.73-15.19 106.44-14.79L106.44-14.79Q106.34-13.92 106.24-13.04 106.14-12.16 106.14-11.23L106.14-11.23Q106.14-10.79 106.22-10.38 106.29-9.96 106.34-9.52L106.34-9.52Q106.39-8.89 106.36-8.28 106.34-7.67 106.39-7.03L106.39-7.03Q106.44-5.81 106.51-4.61 106.58-3.42 106.63-2.15L106.63-2.15Q106.68-1.27 106.56-0.66 106.44-0.05 106.48 0.59L106.48 0.59Q106.34 0.68 106.17 0.73 106 0.78 105.85 0.88L105.85 0.88Q105.31 0.88 105.14 0.85 104.97 0.83 104.82 0.93L104.82 0.93Q104.38 0.63 104.34 0.66 104.29 0.68 104.24 0.68L104.24 0.68Q103.65 0.49 103.6 0.39 103.55 0.29 103.41 0.2L103.41 0.2Q102.87 0.2 102.53 0.34L102.53 0.34Q102.38 0.24 102.28 0.15 102.19 0.05 102.04-0.05L102.04-0.05Q101.6-0.1 101.31-0.17 101.02-0.24 100.82-0.34L100.82-0.34Q100.67-0.73 100.5-1.03 100.33-1.32 100.33-1.81L100.33-1.81Q100.33-2.2 100.43-2.54 100.53-2.88 100.58-3.27L100.58-3.27Q100.58-3.52 100.55-3.71 100.53-3.91 100.53-4.15L100.53-4.15Q100.53-4.39 100.62-4.79L100.62-4.79Q100.48-5.91 100.5-7.15 100.53-8.4 100.53-9.52L100.53-9.52Q100.53-10.64 100.33-11.62L100.33-11.62Q100.38-12.26 100.33-12.52 100.28-12.79 100.28-13.09L100.28-13.09Q100.28-13.33 100.33-13.6 100.38-13.87 100.38-14.11L100.38-14.11Q100.38-14.16 100.31-14.62 100.23-15.09 100.14-15.6 100.04-16.11 99.94-16.58 99.84-17.04 99.84-17.14L99.84-17.14Q99.36-18.02 99.11-18.8 98.87-19.58 98.57-20.12L98.57-20.12Q98.38-20.51 98.18-20.9 97.99-21.29 97.84-21.73L97.84-21.73Q97.74-21.97 97.67-22.27 97.6-22.56 97.5-22.8L97.5-22.8Q97.3-23.19 97.13-23.66 96.96-24.12 96.72-24.41L96.72-24.41Q96.52-24.85 96.35-25.22 96.18-25.59 96.18-25.93L96.18-25.93Q96.03-26.51 95.72-26.98 95.4-27.44 95.16-27.93L95.16-27.93Q95.01-28.22 94.94-28.47 94.86-28.71 94.77-28.96L94.77-28.96Q94.67-29.15 94.5-29.44 94.33-29.74 94.13-29.88L94.13-29.88Q94.03-30.32 93.79-30.66 93.54-31.01 93.45-31.45L93.45-31.45Q93.2-31.79 92.91-32.13L92.91-32.13Q92.71-32.86 92.37-33.47 92.03-34.08 91.74-34.77L91.74-34.77Q91.93-35.79 92.86-36.04L92.86-36.04Q93.35-36.62 93.45-36.67 93.54-36.72 93.89-36.72L93.89-36.72Q94.18-36.96 94.47-37.13 94.77-37.3 95.16-37.21L95.16-37.21Q95.2-37.4 95.42-37.55 95.64-37.7 95.84-37.7L95.84-37.7Q96.13-37.7 96.35-37.4 96.57-37.11 96.82-36.96L96.82-36.96Q97.21-36.28 97.62-35.64 98.04-35.01 98.33-34.33L98.33-34.33Q98.67-33.64 98.94-32.96 99.21-32.28 99.75-31.64L99.75-31.64Q99.99-30.66 100.5-29.81 101.02-28.96 101.36-27.98L101.36-27.98Q101.6-27.39 101.92-26.83 102.24-26.27 102.48-25.63L102.48-25.63Q102.63-25.34 102.72-25.05 102.82-24.76 102.92-24.46L102.92-24.46Q103.02-24.22 103.12-23.83 103.21-23.44 103.36-23.19L103.36-23.19Q103.7-23.54 103.95-24.07L103.95-24.07Q104.29-24.76 104.65-25.37 105.02-25.98 105.31-26.66L105.31-26.66Q105.7-27.29 105.87-27.98 106.04-28.66 106.29-29.35L106.29-29.35Q106.39-29.59 106.51-29.83 106.63-30.08 106.73-30.37L106.73-30.37Q106.87-30.66 106.97-30.96 107.07-31.25 107.17-31.54L107.17-31.54Q107.51-32.47 107.92-33.37 108.34-34.28 108.78-35.21L108.78-35.21Q108.83-35.35 109-35.64 109.17-35.94 109.39-36.25 109.61-36.57 109.8-36.82 110-37.06 110.15-37.16L110.15-37.16Q110.24-37.26 110.46-37.28 110.68-37.3 110.83-37.35L110.83-37.35Q111.27-37.35 111.46-37.11L111.46-37.11Q112.05-36.87 112.34-36.77 112.64-36.67 112.78-36.33L112.78-36.33Q113.52-35.84 113.88-35.77 114.25-35.69 114.44-35.35L114.44-35.35Q114.98-35.01 115.08-34.86 115.18-34.72 115.27-34.57ZM128.16-36.33L128.16-36.33Q128.5-35.69 128.5-34.86L128.5-34.86Q128.5-34.13 128.21-33.3 127.92-32.47 127.28-32.03L127.28-32.03Q126.84-31.05 126.43-30.44 126.01-29.83 125.62-29.25L125.62-29.25Q125.48-28.91 125.33-28.59 125.18-28.27 124.94-27.93L124.94-27.93Q124.79-27.69 124.3-26.95 123.82-26.22 123.3-25.42 122.79-24.61 122.4-23.88 122.01-23.14 122.01-22.95L122.01-22.95Q122.01-22.75 122.47-22.46 122.94-22.17 123.08-22.02L123.08-22.02Q123.33-21.78 123.55-21.53 123.77-21.29 124.01-21.04L124.01-21.04Q124.55-20.61 125.06-20.17 125.57-19.73 126.11-19.19L126.11-19.19Q127.14-18.26 128.26-17.43 129.38-16.6 130.26-15.48L130.26-15.48Q131.09-15.23 131.34-14.31 131.58-13.38 131.48-12.55L131.48-12.55Q131.58-12.4 131.65-12.26 131.73-12.11 131.82-11.91L131.82-11.91Q131.82-11.13 131.6-10.77 131.38-10.4 131.14-9.86L131.14-9.86Q130.9-9.38 130.82-8.89 130.75-8.4 130.51-8.01L130.51-8.01Q130.41-7.86 130.24-7.76 130.07-7.67 129.97-7.47L129.97-7.47Q129.77-7.13 129.65-6.67 129.53-6.2 129.33-5.81L129.33-5.81Q129.19-5.42 128.97-5.03 128.75-4.64 128.6-4.25L128.6-4.25Q128.5-4 128.43-3.66 128.36-3.32 127.97-3.17L127.97-3.17Q127.72-2.29 127.31-1.46 126.89-0.63 126.65 0.24L126.65 0.24Q126.21 0.39 125.55 0.81 124.89 1.22 124.5 1.22L124.5 1.22Q124.35 1.22 124.26 1.07 124.16 0.93 123.96 0.83L123.96 0.83Q123.86 0.78 123.69 0.83 123.52 0.88 123.43 0.88L123.43 0.88Q123.18 0.88 123.06 0.68 122.94 0.49 122.74 0.39L122.74 0.39Q122.59 0.44 122.45 0.49 122.3 0.54 122.16 0.54L122.16 0.54Q121.81 0.54 121.76 0.37 121.72 0.2 121.47 0.05L121.47 0.05Q120.89-0.24 120.79-0.49 120.69-0.73 120.5-0.83L120.5-0.83Q120.84-2.1 121.42-3.25 122.01-4.39 122.55-5.57L122.55-5.57Q122.69-5.96 122.91-6.3 123.13-6.64 123.33-7.03L123.33-7.03Q123.47-7.37 123.77-7.91 124.06-8.45 124.3-9.03 124.55-9.62 124.74-10.13 124.94-10.64 124.94-10.99L124.94-10.99Q124.94-11.67 124.55-12.01L124.55-12.01Q123.13-13.18 121.89-14.4 120.64-15.63 119.27-16.89L119.27-16.89Q118.4-17.68 117.37-18.51L117.37-18.51Q117.18-18.65 117.08-18.95 116.98-19.24 116.78-19.48L116.78-19.48Q116.69-19.68 116.49-19.78 116.3-19.87 116.2-20.07L116.2-20.07Q116.05-20.26 116-20.53 115.95-20.8 115.71-20.95L115.71-20.95Q115.47-21.19 115.12-21.24 114.78-21.29 114.54-21.53L114.54-21.53Q114.68-21.68 114.66-21.85 114.64-22.02 114.64-22.17L114.64-22.17Q114.64-22.51 114.93-22.66 115.22-22.8 115.22-23.19L115.22-23.19Q115.42-23.58 115.51-23.68L115.51-23.68Q116.05-25 116.74-26.22 117.42-27.44 118.15-28.66L118.15-28.66Q118.4-29.05 118.62-29.42 118.84-29.79 119.08-30.18L119.08-30.18Q119.23-30.52 119.35-30.79 119.47-31.05 119.71-31.3L119.71-31.3Q120.4-32.08 120.86-32.76 121.33-33.45 121.57-34.42L121.57-34.42Q121.62-34.67 121.76-35.11 121.91-35.55 122.13-35.99 122.35-36.43 122.59-36.77 122.84-37.11 123.13-37.11L123.13-37.11Q123.38-37.11 123.84-36.91 124.3-36.72 124.65-36.62L124.65-36.62Q124.94-36.52 125.26-36.45 125.57-36.38 125.87-36.38L125.87-36.38Q126.06-36.38 126.26-36.5 126.45-36.62 126.7-36.62L126.7-36.62Q127.09-36.62 127.43-36.5 127.77-36.38 128.16-36.33ZM139.24-35.5L139.24-35.5Q139.44-35.55 139.58-35.64 139.73-35.74 139.93-35.74L139.93-35.74Q140.07-35.69 140.15-35.55 140.22-35.4 140.37-35.3L140.37-35.3Q140.51-35.4 140.63-35.5 140.76-35.6 140.9-35.64L140.9-35.64Q141.39-35.5 141.44-35.16L141.44-35.16Q141.68-35.06 141.88-34.94 142.07-34.81 142.32-34.77L142.32-34.77Q142.42-34.57 142.56-34.47 142.71-34.38 142.9-34.18L142.9-34.18Q143.39-34.08 144.2-33.64 145-33.2 145.49-32.96L145.49-32.96Q145.98-32.71 146.47-32.47 146.96-32.23 147.4-31.93L147.4-31.93Q147.84-31.69 148.28-31.37 148.72-31.05 149.2-30.86L149.2-30.86Q149.64-30.32 150.33-30.18 151.01-30.03 151.55-29.64L151.55-29.64Q151.99-29.39 152.38-29.13 152.77-28.86 153.16-28.61L153.16-28.61Q153.31-28.37 153.53-28.22 153.74-28.08 153.94-27.83L153.94-27.83Q154.92-27.29 155.06-27L155.06-27Q155.21-26.9 155.5-26.71 155.8-26.51 156.09-26.29 156.38-26.07 156.63-25.85 156.87-25.63 156.92-25.44L156.92-25.44Q156.72-25 156.72-24.73 156.72-24.46 156.53-24.27L156.53-24.27Q156.82-23.88 156.82-23.54L156.82-23.54Q156.58-22.95 155.99-22.56L155.99-22.56Q155.84-22.17 155.53-21.95 155.21-21.73 155.11-21.34L155.11-21.34Q154.72-21.09 154.65-20.95 154.57-20.8 154.48-20.65L154.48-20.65Q153.55-19.68 152.74-18.97 151.94-18.26 151.25-17.43L151.25-17.43Q150.77-17.19 150.42-16.82 150.08-16.46 149.79-16.02L149.79-16.02Q149.4-15.63 149.03-15.26 148.67-14.89 148.28-14.55L148.28-14.55Q148.18-14.36 147.96-14.23 147.74-14.11 147.64-13.87L147.64-13.87Q147.1-13.62 146.76-13.18 146.42-12.74 145.93-12.45L145.93-12.45 145.59-11.96Q145.44-11.87 145.18-11.65 144.91-11.43 144.64-11.16 144.37-10.89 144.17-10.64 143.98-10.4 143.93-10.25L143.93-10.25Q143.78-10.21 143.47-9.96 143.15-9.72 142.83-9.42 142.51-9.13 142.25-8.84 141.98-8.54 141.93-8.45L141.93-8.45 141.44-8.11Q141.49-6.79 141.51-5.44 141.54-4.1 141.54-2.78L141.54-2.78 141.54-1.12 141.2-0.68Q140.95-0.68 140.81-0.78 140.66-0.88 140.46-0.88L140.46-0.88Q140.27-0.88 140.1-0.68 139.93-0.49 139.78-0.39L139.78-0.39Q139.44-0.34 139.22-0.22 139-0.1 138.75 0L138.75 0Q138.46-0.15 138.17-0.15L138.17-0.15Q137.53 0 137.56-0.1 137.58-0.2 137.34-0.2L137.34-0.2Q136.95 0.2 136.85 0.2L136.85 0.2Q136.65 0.2 136.48 0.24 136.31 0.29 136.12 0.29L136.12 0.29Q135.92-0.1 135.8-0.51 135.68-0.93 135.34-1.32L135.34-1.32Q135.48-1.81 135.29-2L135.29-2Q135.58-2.54 135.53-3.22 135.48-3.91 135.48-4.49L135.48-4.49Q135.48-4.83 135.51-5.15 135.53-5.47 135.53-5.76L135.53-5.76Q135.53-6.35 135.43-6.96 135.34-7.57 135.34-8.2L135.34-8.2Q135.34-9.67 135.43-11.16 135.53-12.65 135.53-14.11L135.53-14.11Q135.53-14.94 135.46-15.82 135.39-16.7 135.39-17.53L135.39-17.53Q135.39-18.07 135.43-18.53 135.48-18.99 135.53-19.43L135.53-19.43Q135.53-21.68 135.61-23.75 135.68-25.83 135.68-27.88L135.68-27.88Q135.68-28.56 135.65-29.17 135.63-29.79 135.63-30.47L135.63-30.47Q135.63-30.81 135.68-31.15 135.73-31.49 135.73-31.84L135.73-31.84Q135.87-33.35 135.87-34.86L135.87-34.86 135.82-35.64Q136.02-35.94 136.41-35.94L136.41-35.94Q136.95-35.94 137.24-35.6L137.24-35.6Q137.58-35.64 137.9-35.72 138.22-35.79 138.51-35.79L138.51-35.79Q138.95-35.79 139.24-35.5ZM142.22-27.88L142.12-27.73Q142.12-27.49 142.07-27.37 142.03-27.25 141.98-27.15L141.98-27.15Q141.98-27 142-26.83 142.03-26.66 142.03-26.46L142.03-26.46Q142.03-25.34 142-24.24 141.98-23.14 141.98-22.07L141.98-22.07 141.88-19.48Q141.88-19.24 141.93-18.95 141.98-18.65 141.98-18.41L141.98-18.41Q141.98-18.16 141.93-17.92 141.88-17.68 141.88-17.43L141.88-17.43Q141.88-16.8 142.03-16.16L142.03-16.16Q142.27-16.26 142.37-16.48 142.47-16.7 142.61-16.85L142.61-16.85Q143.74-17.87 144.71-18.99 145.69-20.12 146.71-21.24L146.71-21.24Q147.59-22.17 148.23-22.75 148.86-23.34 149.2-24.17L149.2-24.17Q148.37-24.71 147.49-25.27 146.62-25.83 145.64-26.22L145.64-26.22Q145.59-26.32 145.37-26.46 145.15-26.61 144.91-26.73 144.66-26.86 144.42-26.95 144.17-27.05 144.08-27.05L144.08-27.05Q143.64-27.44 143.15-27.54L143.15-27.54Q142.81-27.54 142.56-27.66 142.32-27.78 142.22-27.88L142.22-27.88ZM180.01-36.28L180.5-36.13Q181.09-36.28 181.33-36.25 181.57-36.23 181.82-36.18L181.82-36.18Q182.11-35.99 182.31-35.69L182.31-35.69Q182.31-34.67 182.28-33.67 182.26-32.67 182.26-31.64L182.26-31.64Q182.26-29.79 182.31-27.93 182.36-26.07 182.31-24.22L182.31-24.22Q182.4-23.78 182.36-23.73 182.31-23.68 182.31-23.58L182.31-23.58Q182.31-21.73 182.4-19.92 182.5-18.12 182.5-16.26L182.5-16.26 182.5-9.77Q182.5-7.67 182.62-5.62 182.75-3.56 182.75-1.51L182.75-1.51Q182.75-1.32 182.5-0.98L182.5-0.98Q182.4-0.59 182.21-0.34L182.21-0.34Q181.77-0.29 181.38-0.49L181.38-0.49Q181.18-0.49 181.11-0.37 181.04-0.24 180.89-0.15L180.89-0.15Q180.5-0.15 180.26 0.05 180.01 0.24 179.67 0.24L179.67 0.24Q179.38 0.24 179.11 0.17 178.84 0.1 178.5 0.1L178.5 0.1Q178.4 0.1 178.21 0.27 178.01 0.44 177.91 0.49L177.91 0.49Q177.67 0.49 177.47 0.56 177.28 0.63 177.03 0.63L177.03 0.63Q176.79 0.44 176.81 0.05 176.84-0.34 176.5-0.44L176.5-0.44Q176.5-0.68 176.52-0.98 176.55-1.27 176.55-1.56L176.55-1.56Q176.55-3.47 176.45-5.4 176.35-7.32 176.3-9.23L176.3-9.23Q176.25-10.06 176.28-10.86 176.3-11.67 176.3-12.5L176.3-12.5Q176.3-12.94 176.3-13.38 176.3-13.82 176.2-14.21L176.2-14.21Q175.91-14.26 175.69-14.14 175.47-14.01 175.23-14.01L175.23-14.01Q174.2-13.67 173.86-13.33L173.86-13.33Q173.57-13.33 173.37-13.23 173.18-13.13 172.93-13.04L172.93-13.04Q172.54-12.94 172.17-12.87 171.81-12.79 171.42-12.65L171.42-12.65Q171.17-12.55 170.93-12.45 170.69-12.35 170.44-12.26L170.44-12.26Q169.9-12.06 169.37-11.89 168.83-11.72 168.29-11.52L168.29-11.52Q167.76-11.43 167.37-11.23 166.97-11.04 166.58-10.84L166.58-10.84Q166.24-8.54 166.22-6.47 166.19-4.39 166.34-2.34L166.34-2.34Q166.24-2.05 166.24-1.68 166.24-1.32 166.1-1.07L166.1-1.07Q165.56-0.93 165.39-1.05 165.22-1.17 165.02-1.27L165.02-1.27Q164.83-1.22 164.7-1.07 164.58-0.93 164.48-0.83L164.48-0.83Q164.09-0.83 163.87-0.66 163.65-0.49 163.46-0.39L163.46-0.39Q163.31-0.34 163.17-0.39 163.02-0.44 162.82-0.34L162.82-0.34Q162.34-0.34 162.36-0.46 162.38-0.59 162.24-0.59L162.24-0.59Q162.04-0.59 161.97-0.42 161.9-0.24 161.7-0.15L161.7-0.15Q161.51-0.05 161.26-0.02 161.02 0 160.77 0.1L160.77 0.1Q160.53-0.15 160.53-0.44 160.53-0.73 160.29-0.98L160.29-0.98Q160.19-1.66 160.16-2.32 160.14-2.98 159.99-3.66L159.99-3.66Q160.09-5.03 160.07-5.86 160.04-6.69 160.04-7.57L160.04-7.57Q160.04-8.35 159.99-9.13 159.94-9.91 159.89-10.69L159.89-10.69Q159.8-12.11 159.72-13.57 159.65-15.04 159.65-16.5L159.65-16.5Q159.65-17.72 159.77-18.9 159.89-20.07 159.89-21.29L159.89-21.29Q159.89-22.12 159.92-22.92 159.94-23.73 159.94-24.56L159.94-24.56Q159.94-25.24 159.92-25.9 159.89-26.56 159.89-27.2L159.89-27.2Q159.89-27.93 159.99-28.64 160.09-29.35 160.09-30.03L160.09-30.03Q160.09-30.86 159.99-31.67 159.89-32.47 159.89-33.3L159.89-33.3Q159.89-33.54 159.94-33.76 159.99-33.98 159.99-34.23L159.99-34.23Q159.94-34.77 160.04-34.89 160.14-35.01 160.24-35.21L160.24-35.21Q160.48-35.25 160.77-35.35 161.07-35.45 161.31-35.35L161.31-35.35Q161.6-35.64 162.12-35.64 162.63-35.64 162.87-35.99L162.87-35.99Q163.21-35.94 163.34-35.96 163.46-35.99 163.56-35.99L163.56-35.99Q164-35.89 164.02-36.01 164.05-36.13 164.19-36.13L164.19-36.13Q164.44-36.13 164.95-36.11 165.46-36.08 165.66-35.89L165.66-35.89Q166.14-33.3 166.19-30.62 166.24-27.93 166.24-25.29L166.24-25.29Q166.24-24.61 166.29-23.9 166.34-23.19 166.24-22.51L166.24-22.51Q166.24-22.22 166.19-21.95 166.14-21.68 166.14-21.39L166.14-21.39Q166.14-20.56 166.05-19.65 165.95-18.75 165.95-17.92L165.95-17.92Q166.54-17.58 166.95-17.7 167.37-17.82 167.76-17.97L167.76-17.97Q168.24-18.12 168.66-18.29 169.07-18.46 169.51-18.6L169.51-18.6Q169.9-18.8 170.37-18.92 170.83-19.04 171.22-19.14L171.22-19.14Q172.49-19.58 173.71-20.21 174.93-20.85 176.2-21.24L176.2-21.24Q176.11-23.93 176.11-26.59 176.11-29.25 176.11-31.88L176.11-31.88Q176.11-32.62 176.11-33.4 176.11-34.18 176.2-34.91L176.2-34.91Q176.25-35.11 176.33-35.23 176.4-35.35 176.4-35.6L176.4-35.6Q176.55-35.84 176.74-35.94 176.94-36.04 177.03-36.23L177.03-36.23Q177.13-36.13 177.25-36.06 177.38-35.99 177.52-35.94L177.52-35.94Q177.91-36.04 177.99-36.08 178.06-36.13 178.16-36.18L178.16-36.18Q178.4-36.28 178.79-36.28 179.18-36.28 179.43-36.28L179.43-36.28 180.01-36.28ZM195.88-12.79L195.88-12.79Q195.98-12.55 196.59-11.77 197.2-10.99 197.98-10.06 198.76-9.13 199.47-8.28 200.18-7.42 200.47-7.03L200.47-7.03Q201.01-6.35 201.52-5.69 202.03-5.03 202.47-4.3L202.47-4.3 203.35-2.83Q203.74-2.34 204.06-2 204.37-1.66 204.57-1.07L204.57-1.07Q204.67-0.68 204.67-0.54L204.67-0.54Q204.67-0.2 204.42-0.05L204.42-0.05Q204.03-0.05 204.01 0.07 203.98 0.2 203.79 0.29L203.79 0.29Q203.59 0.39 203.18 0.42 202.76 0.44 202.52 0.44L202.52 0.44Q202.08 0.44 201.42 0.42 200.76 0.39 200.37 0.54L200.37 0.54Q200.27 0.59 200.08 0.68 199.88 0.78 199.78 0.78L199.78 0.78Q199.39 0.78 199.22 0.66 199.05 0.54 198.76 0.49L198.76 0.49Q198.37 0.05 198.1-0.42 197.83-0.88 197.49-1.37L197.49-1.37Q197.15-1.71 196.81-1.98 196.46-2.25 196.22-2.59L196.22-2.59Q195.49-3.66 194.71-4.69 193.93-5.71 193.1-6.69L193.1-6.69Q192.7-7.23 192.27-7.67 191.83-8.11 191.44-8.64L191.44-8.64Q191.04-9.13 190.7-9.69 190.36-10.25 190.02-10.79L190.02-10.79Q189.73-11.23 189.24-11.94 188.75-12.65 188.16-13.35 187.58-14.06 186.99-14.7 186.41-15.33 186.02-15.67L186.02-15.67Q185.97-15.97 185.77-16.14 185.58-16.31 185.33-16.46L185.33-16.46Q185.23-16.7 185.11-16.92 184.99-17.14 184.99-17.38L184.99-17.38Q184.99-17.72 185.14-18.02L185.14-18.02Q185.23-18.21 185.26-18.38 185.28-18.55 185.38-18.75L185.38-18.75Q185.62-19.29 186.04-19.8 186.45-20.31 186.7-20.9L186.7-20.9Q186.8-21.04 186.8-21.22 186.8-21.39 186.89-21.53L186.89-21.53Q186.99-21.92 187.31-22.19 187.63-22.46 187.82-22.8L187.82-22.8Q188.07-23.19 188.29-23.61 188.51-24.02 188.75-24.51L188.75-24.51Q189.48-25.73 190.29-26.88 191.09-28.03 191.92-29.2L191.92-29.2Q192.56-30.18 193.17-31.08 193.78-31.98 194.41-32.91L194.41-32.91Q194.76-33.35 195.15-33.94 195.54-34.52 196-35.11 196.46-35.69 196.95-36.18 197.44-36.67 197.93-36.96L197.93-36.96Q198.66-37.01 198.91-36.65 199.15-36.28 199.64-36.28L199.64-36.28Q200.27-36.13 200.47-35.89 200.66-35.64 200.91-35.4L200.91-35.4Q201.59-35.4 202.01-35.16 202.42-34.91 202.81-34.42L202.81-34.42Q202.67-33.89 202.37-33.47 202.08-33.06 201.84-32.62L201.84-32.62Q201.44-32.42 201.27-32.08 201.1-31.74 200.76-31.54L200.76-31.54Q200.27-30.71 199.74-29.96 199.2-29.2 198.66-28.47L198.66-28.47Q198.37-28.03 198.05-27.69 197.73-27.34 197.49-26.95L197.49-26.95Q197.39-26.81 197.32-26.64 197.25-26.46 197.15-26.32L197.15-26.32Q196.56-25.39 195.88-24.58 195.19-23.78 194.61-22.8L194.61-22.8Q194.41-22.46 194.29-22.09 194.17-21.73 193.97-21.39L193.97-21.39Q193.78-21.09 193.41-20.61 193.05-20.12 192.7-19.56 192.36-18.99 192.09-18.48 191.83-17.97 191.83-17.63L191.83-17.63Q191.87-17.38 192.44-16.67 193-15.97 193.71-15.16 194.41-14.36 195.05-13.65 195.68-12.94 195.88-12.79ZM199.1-21.68L199.1-21.68Q199.44-20.95 199.83-20.41L199.83-20.41Q199.98-20.21 200.18-20.07 200.37-19.92 200.47-19.68L200.47-19.68Q200.57-19.58 200.66-19.26 200.76-18.95 200.86-18.8L200.86-18.8Q201.01-18.41 201.44-17.92 201.88-17.43 201.88-17.04L201.88-17.04Q201.88-16.8 201.79-16.5 201.69-16.21 201.64-15.97L201.64-15.97Q201.59-15.67 201.59-15.36 201.59-15.04 201.4-14.79L201.4-14.79Q201.15-14.55 200.86-14.5 200.57-14.45 200.32-14.26L200.32-14.26Q200.22-14.16 200.03-13.92 199.83-13.67 199.64-13.38 199.44-13.09 199.27-12.82 199.1-12.55 199.1-12.4L199.1-12.4Q198.52-12.35 198.34-12.38 198.17-12.4 197.98-12.35L197.98-12.35Q197.73-12.6 197.47-12.77 197.2-12.94 196.81-13.09L196.81-13.09Q196.71-13.48 196.37-13.99 196.02-14.5 195.78-14.84L195.78-14.84 195.44-15.28Q194.71-16.31 194.1-17.26 193.49-18.21 193.19-19.38L193.19-19.38Q194.12-20.07 194.63-20.41 195.15-20.75 195.73-21.04 196.32-21.34 196.88-21.61 197.44-21.88 197.93-22.27L197.93-22.27Q198.32-22.27 198.47-22.22 198.61-22.17 198.66-22.12 198.71-22.07 198.78-21.95 198.86-21.83 199.1-21.68ZM229.37-4.69L229.37-4.69Q229.32-3.96 229.69-3.59 230.06-3.22 230.3-2.69L230.3-2.69Q230.2-2 230.45-1.61L230.45-1.61Q230.3-1.32 230.15-0.95 230.01-0.59 229.71-0.34L229.71-0.34Q228.93 0 228.79 0.24 228.64 0.49 228.2 0.49L228.2 0.49Q227.96 0.73 227.66 1 227.37 1.27 227.13 1.51L227.13 1.51Q226.88 1.42 226.78 1.27 226.69 1.12 226.49 0.88L226.49 0.88Q226 0.73 225.61 0.37 225.22 0 224.93-0.46 224.64-0.93 224.37-1.44 224.1-1.95 223.9-2.39L223.9-2.39Q223.22-3.66 222.51-4.96 221.8-6.25 221.07-7.52L221.07-7.52Q220.68-8.15 220.31-8.81 219.95-9.47 219.56-10.16L219.56-10.16Q219.46-10.25 219.36-10.38 219.26-10.5 219.17-10.64L219.17-10.64Q218.83-11.13 218.65-11.74 218.48-12.35 217.95-12.74L217.95-12.74Q217.02-12.84 216.26-12.48 215.5-12.11 214.92-11.52L214.92-11.52Q214.97-11.18 214.97-10.89 214.97-10.6 214.97-10.3L214.97-10.3Q214.97-9.18 214.87-8.15 214.77-7.13 214.77-6.01L214.77-6.01Q214.77-5.52 214.82-5 214.87-4.49 214.97-4L214.97-4Q214.82-3.47 214.82-2.83L214.82-2.83Q214.82-2.49 214.89-2.2 214.97-1.9 214.97-1.56L214.97-1.56Q214.97-1.07 214.65-0.9 214.33-0.73 214.43-0.29L214.43-0.29Q213.84-0.05 213.31 0.2 212.77 0.44 212.18 0.54L212.18 0.54Q211.94 0.59 211.7 0.56 211.45 0.54 211.26 0.63L211.26 0.63Q211.01 0.73 210.87 1 210.72 1.27 210.48 1.27L210.48 1.27Q210.18 1.27 210.13 1.05 210.08 0.83 209.94 0.68L209.94 0.68Q209.69 0.59 209.55 0.59 209.4 0.59 209.25 0.44L209.25 0.44Q209.3 0 209.06-0.22 208.82-0.44 208.82-1.12L208.82-1.12Q208.82-1.66 208.89-2.15 208.96-2.64 208.96-3.17L208.96-3.17Q208.96-3.61 208.84-3.98 208.72-4.35 208.62-4.79L208.62-4.79Q208.57-4.98 208.62-5.18 208.67-5.37 208.67-5.57L208.67-5.57Q208.67-6.45 208.6-7.35 208.52-8.25 208.52-9.13L208.52-9.13Q208.52-9.47 208.52-9.77 208.52-10.06 208.57-10.35L208.57-10.35Q208.67-10.64 208.74-10.84 208.82-11.04 208.82-11.33L208.82-11.33Q208.82-12.26 208.62-13.16 208.42-14.06 208.42-14.94L208.42-14.94Q208.42-15.43 208.45-15.94 208.47-16.46 208.47-16.94L208.47-16.94Q208.47-18.36 208.42-19.73 208.38-21.09 208.38-22.46L208.38-22.46Q208.38-23.44 208.42-24.39 208.47-25.34 208.47-26.32L208.47-26.32Q208.47-27.54 208.38-28.74 208.28-29.93 208.28-31.2L208.28-31.2Q208.28-31.64 208.23-31.79 208.18-31.93 208.08-31.96 207.99-31.98 207.86-32.01 207.74-32.03 207.64-32.18L207.64-32.18Q207.64-32.47 207.89-32.59 208.13-32.71 208.13-33.4L208.13-33.4Q208.13-33.79 208.06-34.18 207.99-34.57 207.99-34.96L207.99-34.96Q207.99-35.55 208.23-36.13 208.47-36.72 208.67-37.26L208.67-37.26Q209.25-37.3 209.47-37.26 209.69-37.21 209.94-37.3L209.94-37.3Q210.08-36.77 210.57-36.74 211.06-36.72 211.45-36.62L211.45-36.62Q211.89-36.57 212.31-36.4 212.72-36.23 213.11-36.23L213.11-36.23Q213.21-35.94 213.53-35.82 213.84-35.69 214.19-35.6L214.19-35.6Q214.58-35.64 214.8-35.94 215.02-36.23 215.41-36.23L215.41-36.23Q215.7-36.23 216.09-35.82 216.48-35.4 216.68-35.16L216.68-35.16Q216.87-35.01 217.41-34.52 217.95-34.03 218.58-33.52 219.22-33.01 219.75-32.54 220.29-32.08 220.44-32.03L220.44-32.03Q222.44-30.03 224.17-28.39 225.91-26.76 227.96-25.44L227.96-25.44Q228-25.29 228.08-25.2 228.15-25.1 228.25-24.95L228.25-24.95Q228.25-24.56 228.1-24.37 227.96-24.17 227.96-23.88L227.96-23.88Q227.96-23.73 228.03-23.58 228.1-23.44 228.1-23.29L228.1-23.29Q228.15-23.1 228.13-22.92 228.1-22.75 228.1-22.56L228.1-22.56Q228.1-22.07 228.42-21.68 228.74-21.29 228.74-20.8L228.74-20.8Q228.64-20.36 228.35-20.26 228.05-20.17 227.86-20.02L227.86-20.02Q227.76-19.92 227.69-19.78 227.61-19.63 227.52-19.53L227.52-19.53Q226.44-19.04 225.95-18.63 225.47-18.21 224.93-17.82L224.93-17.82Q224.78-17.72 224.44-17.5 224.1-17.29 223.76-17.07 223.42-16.85 223.15-16.6 222.88-16.36 222.88-16.21L222.88-16.21Q222.88-15.87 223.29-15.26 223.71-14.65 223.9-14.31L223.9-14.31Q224.44-13.43 224.88-12.57 225.32-11.72 225.86-10.89L225.86-10.89Q226.83-9.38 227.69-7.81 228.54-6.25 229.37-4.69ZM221.41-22.85L221.41-22.85Q220.29-24.27 219-25.42 217.7-26.56 216.53-27.83L216.53-27.83 215.99-27.93Q215.7-28.42 215.33-28.78 214.97-29.15 214.58-29.54L214.58-29.54Q214.63-29 214.63-28.52 214.63-28.03 214.63-27.49L214.63-27.49Q214.63-25.93 214.55-24.44 214.48-22.95 214.48-21.44L214.48-21.44Q214.48-19.92 214.63-18.55L214.63-18.55Q215.65-18.55 216.48-19.14L216.48-19.14Q216.82-19.38 217.12-19.65 217.41-19.92 217.75-20.17L217.75-20.17Q218.14-20.41 218.65-20.75 219.17-21.09 219.68-21.44 220.19-21.78 220.66-22.14 221.12-22.51 221.41-22.85ZM240.36-12.79L240.36-12.79Q240.45-12.55 241.06-11.77 241.67-10.99 242.46-10.06 243.24-9.13 243.94-8.28 244.65-7.42 244.95-7.03L244.95-7.03Q245.48-6.35 246-5.69 246.51-5.03 246.95-4.3L246.95-4.3 247.83-2.83Q248.22-2.34 248.53-2 248.85-1.66 249.05-1.07L249.05-1.07Q249.14-0.68 249.14-0.54L249.14-0.54Q249.14-0.2 248.9-0.05L248.9-0.05Q248.51-0.05 248.49 0.07 248.46 0.2 248.27 0.29L248.27 0.29Q248.07 0.39 247.66 0.42 247.24 0.44 247 0.44L247 0.44Q246.56 0.44 245.9 0.42 245.24 0.39 244.85 0.54L244.85 0.54Q244.75 0.59 244.56 0.68 244.36 0.78 244.26 0.78L244.26 0.78Q243.87 0.78 243.7 0.66 243.53 0.54 243.24 0.49L243.24 0.49Q242.85 0.05 242.58-0.42 242.31-0.88 241.97-1.37L241.97-1.37Q241.63-1.71 241.28-1.98 240.94-2.25 240.7-2.59L240.7-2.59Q239.97-3.66 239.18-4.69 238.4-5.71 237.57-6.69L237.57-6.69Q237.18-7.23 236.74-7.67 236.3-8.11 235.91-8.64L235.91-8.64Q235.52-9.13 235.18-9.69 234.84-10.25 234.5-10.79L234.5-10.79Q234.2-11.23 233.72-11.94 233.23-12.65 232.64-13.35 232.06-14.06 231.47-14.7 230.88-15.33 230.49-15.67L230.49-15.67Q230.44-15.97 230.25-16.14 230.05-16.31 229.81-16.46L229.81-16.46Q229.71-16.7 229.59-16.92 229.47-17.14 229.47-17.38L229.47-17.38Q229.47-17.72 229.61-18.02L229.61-18.02Q229.71-18.21 229.74-18.38 229.76-18.55 229.86-18.75L229.86-18.75Q230.1-19.29 230.52-19.8 230.93-20.31 231.18-20.9L231.18-20.9Q231.27-21.04 231.27-21.22 231.27-21.39 231.37-21.53L231.37-21.53Q231.47-21.92 231.79-22.19 232.1-22.46 232.3-22.8L232.3-22.8Q232.54-23.19 232.76-23.61 232.98-24.02 233.23-24.51L233.23-24.51Q233.96-25.73 234.77-26.88 235.57-28.03 236.4-29.2L236.4-29.2Q237.04-30.18 237.65-31.08 238.26-31.98 238.89-32.91L238.89-32.91Q239.23-33.35 239.62-33.94 240.01-34.52 240.48-35.11 240.94-35.69 241.43-36.18 241.92-36.67 242.41-36.96L242.41-36.96Q243.14-37.01 243.38-36.65 243.63-36.28 244.12-36.28L244.12-36.28Q244.75-36.13 244.95-35.89 245.14-35.64 245.39-35.4L245.39-35.4Q246.07-35.4 246.48-35.16 246.9-34.91 247.29-34.42L247.29-34.42Q247.14-33.89 246.85-33.47 246.56-33.06 246.31-32.62L246.31-32.62Q245.92-32.42 245.75-32.08 245.58-31.74 245.24-31.54L245.24-31.54Q244.75-30.71 244.21-29.96 243.68-29.2 243.14-28.47L243.14-28.47Q242.85-28.03 242.53-27.69 242.21-27.34 241.97-26.95L241.97-26.95Q241.87-26.81 241.8-26.64 241.72-26.46 241.63-26.32L241.63-26.32Q241.04-25.39 240.36-24.58 239.67-23.78 239.09-22.8L239.09-22.8Q238.89-22.46 238.77-22.09 238.65-21.73 238.45-21.39L238.45-21.39Q238.26-21.09 237.89-20.61 237.52-20.12 237.18-19.56 236.84-18.99 236.57-18.48 236.3-17.97 236.3-17.63L236.3-17.63Q236.35-17.38 236.91-16.67 237.48-15.97 238.18-15.16 238.89-14.36 239.53-13.65 240.16-12.94 240.36-12.79ZM243.58-21.68L243.58-21.68Q243.92-20.95 244.31-20.41L244.31-20.41Q244.46-20.21 244.65-20.07 244.85-19.92 244.95-19.68L244.95-19.68Q245.04-19.58 245.14-19.26 245.24-18.95 245.34-18.8L245.34-18.8Q245.48-18.41 245.92-17.92 246.36-17.43 246.36-17.04L246.36-17.04Q246.36-16.8 246.26-16.5 246.17-16.21 246.12-15.97L246.12-15.97Q246.07-15.67 246.07-15.36 246.07-15.04 245.87-14.79L245.87-14.79Q245.63-14.55 245.34-14.5 245.04-14.45 244.8-14.26L244.8-14.26Q244.7-14.16 244.51-13.92 244.31-13.67 244.12-13.38 243.92-13.09 243.75-12.82 243.58-12.55 243.58-12.4L243.58-12.4Q242.99-12.35 242.82-12.38 242.65-12.4 242.46-12.35L242.46-12.35Q242.21-12.6 241.94-12.77 241.67-12.94 241.28-13.09L241.28-13.09Q241.19-13.48 240.84-13.99 240.5-14.5 240.26-14.84L240.26-14.84 239.92-15.28Q239.18-16.31 238.57-17.26 237.96-18.21 237.67-19.38L237.67-19.38Q238.6-20.07 239.11-20.41 239.62-20.75 240.21-21.04 240.8-21.34 241.36-21.61 241.92-21.88 242.41-22.27L242.41-22.27Q242.8-22.27 242.94-22.22 243.09-22.17 243.14-22.12 243.19-22.07 243.26-21.95 243.33-21.83 243.58-21.68Z" fill="white"></path></g></svg></g></svg></g></svg></g></svg></g><g><svg viewBox="0 0 108.02563369720794 85.92927523884103" height="85.92927523884103" width="108.02563369720794"><g><svg xmlns="http://www.w3.org/2000/svg" xmlns:xlink="http://www.w3.org/1999/xlink" version="1.1" x="0" y="0" viewBox="14.265999999999998 21.575 71.47 56.851" enable-background="new 0 0 100 100" xml:space="preserve" height="85.92927523884103" width="108.02563369720794" class="icon-icon-0" data-fill-palette-color="accent" id="SvgjsSvg1762"><g fill="black"><path d="M50 21.575c-4.924 0-8.92 3.973-8.92 8.841v0.028c0.028 3.273 0.76 6.91 2.223 9.82 1.436 2.91 3.715 5.176 6.697 5.176 2.982 0 5.261-2.266 6.697-5.176 1.463-2.91 2.193-6.546 2.25-9.82v-0.028C58.947 25.548 54.924 21.575 50 21.575L50 21.575zM50 23.142c4.08 0 7.343 3.246 7.343 7.274-0.027 3.049-0.787 6.519-2.082 9.148s-3.066 4.28-5.261 4.28c-2.195 0-3.968-1.65-5.262-4.28-1.295-2.63-2.055-6.099-2.082-9.148C42.657 26.387 45.92 23.142 50 23.142L50 23.142zM30.473 26.611c-4.192 0-7.597 3.385-7.597 7.526 0.028 2.77 0.675 5.819 1.885 8.281s3.151 4.42 5.712 4.42 4.474-1.958 5.712-4.42c1.21-2.462 1.856-5.511 1.885-8.281C38.07 29.996 34.637 26.611 30.473 26.611L30.473 26.611zM69.527 26.611c-4.164 0-7.598 3.385-7.598 7.526 0.029 2.77 0.676 5.819 1.885 8.281 1.238 2.462 3.152 4.42 5.713 4.42s4.502-1.958 5.711-4.42c1.211-2.462 1.857-5.511 1.887-8.281C77.125 29.996 73.719 26.611 69.527 26.611L69.527 26.611zM30.473 28.178c3.32 0 5.993 2.658 5.993 5.959-0.028 2.518-0.619 5.428-1.716 7.61-1.069 2.154-2.533 3.525-4.277 3.525-1.745 0-3.18-1.371-4.277-3.525-1.069-2.182-1.688-5.092-1.745-7.61C24.452 30.835 27.153 28.178 30.473 28.178L30.473 28.178zM69.527 28.178c3.32 0 6.021 2.658 6.021 5.959-0.057 2.518-0.676 5.428-1.744 7.61-1.098 2.154-2.533 3.525-4.277 3.525s-3.207-1.371-4.277-3.525c-1.098-2.182-1.688-5.092-1.717-7.61C63.533 30.835 66.207 28.178 69.527 28.178L69.527 28.178zM50 46.727c-4.023 0-7.766 1.399-10.833 3.805-2.505-1.818-5.487-2.881-8.694-2.881-9.004 0-16.207 8.309-16.207 18.409 0 1.119 0.084 2.21 0.253 3.273l0.056 0.336 0.253 0.168c4.193 2.882 9.651 4.616 15.645 4.616 1.041 0 2.026-0.057 3.039-0.168 4.643 2.602 10.327 4.141 16.489 4.141 6.162 0 11.873-1.539 16.515-4.141 0.986 0.084 1.998 0.168 3.012 0.168 5.992 0 11.451-1.734 15.645-4.616l0.252-0.168 0.057-0.336c0.17-1.063 0.254-2.154 0.254-3.273 0-10.1-7.203-18.409-16.207-18.409-3.207 0-6.189 1.063-8.695 2.881C57.766 48.125 54.023 46.727 50 46.727L50 46.727zM50 48.293c9.707 0 17.669 9.008 17.669 20.284 0 1.118-0.113 2.21-0.254 3.272C62.773 74.928 56.697 76.857 50 76.857c-6.697 0-12.774-1.93-17.417-5.035-0.141-1.063-0.253-2.127-0.253-3.245C32.33 57.302 40.293 48.293 50 48.293L50 48.293zM30.473 49.245c2.701 0 5.233 0.839 7.428 2.322-4.389 4.029-7.146 10.184-7.146 17.011 0 1.314 0.084 2.602 0.281 3.86l0.056 0.308 0.113 0.112c-0.253 0-0.479 0.027-0.731 0.027-5.543 0-10.551-1.595-14.435-4.168-0.112-0.867-0.197-1.734-0.197-2.658C15.842 56.687 22.454 49.245 30.473 49.245L30.473 49.245zM69.527 49.245c8.02 0 14.631 7.442 14.631 16.814 0 0.924-0.084 1.791-0.197 2.658-3.883 2.573-8.891 4.168-14.434 4.168-0.225 0-0.479-0.027-0.703-0.027l0.084-0.084 0.057-0.308c0.197-1.26 0.281-2.574 0.281-3.889 0-6.827-2.758-12.981-7.146-17.011C64.293 50.084 66.826 49.245 69.527 49.245L69.527 49.245z" fill="black"></path></g></svg></g></svg></g></svg></g><defs><mask></mask></defs></svg><rect width="395.5199999999999" height="65.583089423521" fill="black" stroke="none" visibility="hidden"></rect></g></mask><linearGradient x1="0.054" x2="0.941" y1="0.5" y2="0.5" id="052a9e14-0927-4bf2-aa22-24f0cad1cc49"><stop stop-color="#0f3054" offset="0"></stop><stop stop-color="#3b8dcb" offset="0.498"></stop><stop stop-color="#0f3054" offset="1"></stop></linearGradient><rect width="395.5199999999999" height="65.583089423521" fill="url(#052a9e14-0927-4bf2-aa22-24f0cad1cc49)" mask="url(#01b32d2b-96a3-4e17-82f5-7154e687cde6)" data-fill-palette-color="primary"></rect><mask id="a1d2afb3-3a07-48c6-961e-f7c13ebfd258"><g id="SvgjsG1787"><svg viewBox="0 0 395.5199999999999 65.583089423521" height="65.583089423521" width="395.5199999999999"><g><svg viewBox="0 0 518.2242441033472 85.92927523884103" height="65.583089423521" width="395.5199999999999"><g transform="matrix(1,0,0,1,122.70424410334732,11.875898386844167)"><svg viewBox="0 0 395.52 62.177478465152696" height="62.177478465152696" width="395.52"><g id="SvgjsG1786"><svg viewBox="0 0 395.52 62.177478465152696" height="62.177478465152696" width="395.52" id="SvgjsSvg1785"><g><svg viewBox="0 0 395.52 62.177478465152696" height="62.177478465152696" width="395.52"><g transform="matrix(1,0,0,1,0,0)"><svg width="395.52" viewBox="-0.24 -37.7 249.38 39.21" height="62.177478465152696" data-palette-color="url(#052a9e14-0927-4bf2-aa22-24f0cad1cc49)"><g class="wordmark-text-0" data-fill-palette-color="primary" id="SvgjsG1784"></g></svg></g></svg></g></svg></g></svg></g><g><svg viewBox="0 0 108.02563369720794 85.92927523884103" height="85.92927523884103" width="108.02563369720794"><g><svg xmlns="http://www.w3.org/2000/svg" xmlns:xlink="http://www.w3.org/1999/xlink" version="1.1" x="0" y="0" viewBox="14.265999999999998 21.575 71.47 56.851" enable-background="new 0 0 100 100" xml:space="preserve" height="85.92927523884103" width="108.02563369720794" class="icon-icon-0" data-fill-palette-color="accent" id="SvgjsSvg1783"><g fill="white"><path d="M50 21.575c-4.924 0-8.92 3.973-8.92 8.841v0.028c0.028 3.273 0.76 6.91 2.223 9.82 1.436 2.91 3.715 5.176 6.697 5.176 2.982 0 5.261-2.266 6.697-5.176 1.463-2.91 2.193-6.546 2.25-9.82v-0.028C58.947 25.548 54.924 21.575 50 21.575L50 21.575zM50 23.142c4.08 0 7.343 3.246 7.343 7.274-0.027 3.049-0.787 6.519-2.082 9.148s-3.066 4.28-5.261 4.28c-2.195 0-3.968-1.65-5.262-4.28-1.295-2.63-2.055-6.099-2.082-9.148C42.657 26.387 45.92 23.142 50 23.142L50 23.142zM30.473 26.611c-4.192 0-7.597 3.385-7.597 7.526 0.028 2.77 0.675 5.819 1.885 8.281s3.151 4.42 5.712 4.42 4.474-1.958 5.712-4.42c1.21-2.462 1.856-5.511 1.885-8.281C38.07 29.996 34.637 26.611 30.473 26.611L30.473 26.611zM69.527 26.611c-4.164 0-7.598 3.385-7.598 7.526 0.029 2.77 0.676 5.819 1.885 8.281 1.238 2.462 3.152 4.42 5.713 4.42s4.502-1.958 5.711-4.42c1.211-2.462 1.857-5.511 1.887-8.281C77.125 29.996 73.719 26.611 69.527 26.611L69.527 26.611zM30.473 28.178c3.32 0 5.993 2.658 5.993 5.959-0.028 2.518-0.619 5.428-1.716 7.61-1.069 2.154-2.533 3.525-4.277 3.525-1.745 0-3.18-1.371-4.277-3.525-1.069-2.182-1.688-5.092-1.745-7.61C24.452 30.835 27.153 28.178 30.473 28.178L30.473 28.178zM69.527 28.178c3.32 0 6.021 2.658 6.021 5.959-0.057 2.518-0.676 5.428-1.744 7.61-1.098 2.154-2.533 3.525-4.277 3.525s-3.207-1.371-4.277-3.525c-1.098-2.182-1.688-5.092-1.717-7.61C63.533 30.835 66.207 28.178 69.527 28.178L69.527 28.178zM50 46.727c-4.023 0-7.766 1.399-10.833 3.805-2.505-1.818-5.487-2.881-8.694-2.881-9.004 0-16.207 8.309-16.207 18.409 0 1.119 0.084 2.21 0.253 3.273l0.056 0.336 0.253 0.168c4.193 2.882 9.651 4.616 15.645 4.616 1.041 0 2.026-0.057 3.039-0.168 4.643 2.602 10.327 4.141 16.489 4.141 6.162 0 11.873-1.539 16.515-4.141 0.986 0.084 1.998 0.168 3.012 0.168 5.992 0 11.451-1.734 15.645-4.616l0.252-0.168 0.057-0.336c0.17-1.063 0.254-2.154 0.254-3.273 0-10.1-7.203-18.409-16.207-18.409-3.207 0-6.189 1.063-8.695 2.881C57.766 48.125 54.023 46.727 50 46.727L50 46.727zM50 48.293c9.707 0 17.669 9.008 17.669 20.284 0 1.118-0.113 2.21-0.254 3.272C62.773 74.928 56.697 76.857 50 76.857c-6.697 0-12.774-1.93-17.417-5.035-0.141-1.063-0.253-2.127-0.253-3.245C32.33 57.302 40.293 48.293 50 48.293L50 48.293zM30.473 49.245c2.701 0 5.233 0.839 7.428 2.322-4.389 4.029-7.146 10.184-7.146 17.011 0 1.314 0.084 2.602 0.281 3.86l0.056 0.308 0.113 0.112c-0.253 0-0.479 0.027-0.731 0.027-5.543 0-10.551-1.595-14.435-4.168-0.112-0.867-0.197-1.734-0.197-2.658C15.842 56.687 22.454 49.245 30.473 49.245L30.473 49.245zM69.527 49.245c8.02 0 14.631 7.442 14.631 16.814 0 0.924-0.084 1.791-0.197 2.658-3.883 2.573-8.891 4.168-14.434 4.168-0.225 0-0.479-0.027-0.703-0.027l0.084-0.084 0.057-0.308c0.197-1.26 0.281-2.574 0.281-3.889 0-6.827-2.758-12.981-7.146-17.011C64.293 50.084 66.826 49.245 69.527 49.245L69.527 49.245z" fill="white"></path></g></svg></g></svg></g></svg></g><defs><mask></mask></defs><mask><g id="SvgjsG1782"><svg viewBox="0 0 395.5199999999999 65.583089423521" height="65.583089423521" width="395.5199999999999"><g><svg viewBox="0 0 518.2242441033472 85.92927523884103" height="65.583089423521" width="395.5199999999999"><g transform="matrix(1,0,0,1,122.70424410334732,11.875898386844167)"><svg viewBox="0 0 395.52 62.177478465152696" height="62.177478465152696" width="395.52"><g id="SvgjsG1781"><svg viewBox="0 0 395.52 62.177478465152696" height="62.177478465152696" width="395.52" id="SvgjsSvg1780"><g><svg viewBox="0 0 395.52 62.177478465152696" height="62.177478465152696" width="395.52"><g transform="matrix(1,0,0,1,0,0)"><svg width="395.52" viewBox="-0.24 -37.7 249.38 39.21" height="62.177478465152696" data-palette-color="url(#052a9e14-0927-4bf2-aa22-24f0cad1cc49)"><g class="wordmark-text-0" data-fill-palette-color="primary" id="SvgjsG1779"><path d="M13.38-36.33L13.38-36.33Q13.72-35.69 13.72-34.86L13.72-34.86Q13.72-34.13 13.43-33.3 13.13-32.47 12.5-32.03L12.5-32.03Q12.06-31.05 11.65-30.44 11.23-29.83 10.84-29.25L10.84-29.25Q10.69-28.91 10.55-28.59 10.4-28.27 10.16-27.93L10.16-27.93Q10.01-27.69 9.52-26.95 9.03-26.22 8.52-25.42 8.01-24.61 7.62-23.88 7.23-23.14 7.23-22.95L7.23-22.95Q7.23-22.75 7.69-22.46 8.15-22.17 8.3-22.02L8.3-22.02Q8.54-21.78 8.76-21.53 8.98-21.29 9.23-21.04L9.23-21.04Q9.77-20.61 10.28-20.17 10.79-19.73 11.33-19.19L11.33-19.19Q12.35-18.26 13.48-17.43 14.6-16.6 15.48-15.48L15.48-15.48Q16.31-15.23 16.55-14.31 16.8-13.38 16.7-12.55L16.7-12.55Q16.8-12.4 16.87-12.26 16.94-12.11 17.04-11.91L17.04-11.91Q17.04-11.13 16.82-10.77 16.6-10.4 16.36-9.86L16.36-9.86Q16.11-9.38 16.04-8.89 15.97-8.4 15.72-8.01L15.72-8.01Q15.63-7.86 15.45-7.76 15.28-7.67 15.19-7.47L15.19-7.47Q14.99-7.13 14.87-6.67 14.75-6.2 14.55-5.81L14.55-5.81Q14.4-5.42 14.18-5.03 13.96-4.64 13.82-4.25L13.82-4.25Q13.72-4 13.65-3.66 13.57-3.32 13.18-3.17L13.18-3.17Q12.94-2.29 12.52-1.46 12.11-0.63 11.87 0.24L11.87 0.24Q11.43 0.39 10.77 0.81 10.11 1.22 9.72 1.22L9.72 1.22Q9.57 1.22 9.47 1.07 9.38 0.93 9.18 0.83L9.18 0.83Q9.08 0.78 8.91 0.83 8.74 0.88 8.64 0.88L8.64 0.88Q8.4 0.88 8.28 0.68 8.15 0.49 7.96 0.39L7.96 0.39Q7.81 0.44 7.67 0.49 7.52 0.54 7.37 0.54L7.37 0.54Q7.03 0.54 6.98 0.37 6.93 0.2 6.69 0.05L6.69 0.05Q6.1-0.24 6.01-0.49 5.91-0.73 5.71-0.83L5.71-0.83Q6.05-2.1 6.64-3.25 7.23-4.39 7.76-5.57L7.76-5.57Q7.91-5.96 8.13-6.3 8.35-6.64 8.54-7.03L8.54-7.03Q8.69-7.37 8.98-7.91 9.28-8.45 9.52-9.03 9.77-9.62 9.96-10.13 10.16-10.64 10.16-10.99L10.16-10.99Q10.16-11.67 9.77-12.01L9.77-12.01Q8.35-13.18 7.1-14.4 5.86-15.63 4.49-16.89L4.49-16.89Q3.61-17.68 2.59-18.51L2.59-18.51Q2.39-18.65 2.29-18.95 2.2-19.24 2-19.48L2-19.48Q1.9-19.68 1.71-19.78 1.51-19.87 1.42-20.07L1.42-20.07Q1.27-20.26 1.22-20.53 1.17-20.8 0.93-20.95L0.93-20.95Q0.68-21.19 0.34-21.24 0-21.29-0.24-21.53L-0.24-21.53Q-0.1-21.68-0.12-21.85-0.15-22.02-0.15-22.17L-0.15-22.17Q-0.15-22.51 0.15-22.66 0.44-22.8 0.44-23.19L0.44-23.19Q0.63-23.58 0.73-23.68L0.73-23.68Q1.27-25 1.95-26.22 2.64-27.44 3.37-28.66L3.37-28.66Q3.61-29.05 3.83-29.42 4.05-29.79 4.3-30.18L4.3-30.18Q4.44-30.52 4.57-30.79 4.69-31.05 4.93-31.3L4.93-31.3Q5.62-32.08 6.08-32.76 6.54-33.45 6.79-34.42L6.79-34.42Q6.84-34.67 6.98-35.11 7.13-35.55 7.35-35.99 7.57-36.43 7.81-36.77 8.06-37.11 8.35-37.11L8.35-37.11Q8.59-37.11 9.06-36.91 9.52-36.72 9.86-36.62L9.86-36.62Q10.16-36.52 10.47-36.45 10.79-36.38 11.08-36.38L11.08-36.38Q11.28-36.38 11.47-36.5 11.67-36.62 11.91-36.62L11.91-36.62Q12.3-36.62 12.65-36.5 12.99-36.38 13.38-36.33ZM40.43-34.91L40.43-34.91Q40.33-34.72 40.35-34.52 40.38-34.33 40.38-34.08L40.38-34.08Q40.28-33.5 40.38-33.5 40.48-33.5 40.48-33.4L40.48-33.4 40.13-32.91Q40.13-32.62 40.01-32.37 39.89-32.13 39.94-31.79L39.94-31.79Q39.79-31.54 39.67-31.3 39.55-31.05 39.3-30.81L39.3-30.81 38.67-30.81Q38.13-30.81 37.52-30.74 36.91-30.66 36.33-30.66L36.33-30.66Q36.23-30.66 36.08-30.69 35.94-30.71 35.79-30.71L35.79-30.71Q35.69-30.71 35.54-30.69 35.4-30.66 35.2-30.66L35.2-30.66Q34.47-30.66 33.76-30.74 33.05-30.81 32.27-30.81L32.27-30.81Q32.08-30.81 31.88-30.81 31.69-30.81 31.44-30.76L31.44-30.76Q31.39-29.93 31.37-29.08 31.35-28.22 31.35-27.34L31.35-27.34Q31.35-27.1 31.3-26.83 31.25-26.56 31.25-26.32L31.25-26.32Q31.2-25.68 31.17-25.1 31.15-24.51 31.15-23.88L31.15-23.88Q31.15-22.51 31.17-21.14 31.2-19.78 31.25-18.36L31.25-18.36Q31.3-17.63 31.35-16.94 31.39-16.26 31.39-15.53L31.39-15.53Q31.39-13.87 31.35-12.23 31.3-10.6 31.3-8.94L31.3-8.94Q31.3-8.4 31.25-7.93 31.2-7.47 31.2-6.93L31.2-6.93Q31.2-5.81 31.25-4.69 31.3-3.56 31.3-2.44L31.3-2.44Q31.3-1.9 31.27-1.37 31.25-0.83 31.25-0.29L31.25-0.29Q31 0.1 30.91 0.39 30.81 0.68 30.32 0.68L30.32 0.68Q29.98 0.59 30 0.46 30.03 0.34 29.93 0.24L29.93 0.24Q29.49 0.2 29.27 0.32 29.05 0.44 28.76 0.54L28.76 0.54Q28.61 0.49 28.44 0.49 28.27 0.49 28.12 0.49L28.12 0.49Q28.02 0.49 27.93 0.56 27.83 0.63 27.49 0.63L27.49 0.63Q27.19 0.68 27.15 0.54 27.1 0.39 26.85 0.39L26.85 0.39Q26.61 0.54 26.29 0.61 25.97 0.68 25.68 0.68L25.68 0.68Q25.39 0.49 25.41 0.32 25.44 0.15 25.34-0.05L25.34-0.05Q25.29-0.15 25.17-0.32 25.05-0.49 24.95-0.59L24.95-0.59Q25.05-1.27 25.1-1.81 25.14-2.34 25.14-2.98L25.14-2.98Q25.14-4.25 25.05-5.47 24.95-6.69 24.95-7.96L24.95-7.96Q24.95-8.35 25.05-8.79 25.14-9.23 25.14-9.72L25.14-9.72Q25.05-10.11 25.1-10.18 25.14-10.25 25.14-10.35L25.14-10.35Q25.14-10.64 25.12-10.94 25.1-11.23 25.1-11.52L25.1-11.52Q25.1-12.11 25.12-12.7 25.14-13.28 25.14-13.87L25.14-13.87Q25.14-14.11 25.12-14.38 25.1-14.65 25.1-14.89L25.1-14.89Q25.05-15.33 25.07-15.82 25.1-16.31 25.1-16.8L25.1-16.8Q25.1-19.14 25.02-21.44 24.95-23.73 24.95-26.07L24.95-26.07Q24.95-27.25 25.07-28.39 25.19-29.54 25.19-30.71L25.19-30.71Q25.19-30.86 25.1-31.1 25-31.35 24.9-31.45L24.9-31.45Q24.66-31.45 24.44-31.47 24.22-31.49 23.97-31.49L23.97-31.49Q23.43-31.49 22.95-31.35L22.95-31.35Q22.02-31.3 21.16-31.23 20.31-31.15 19.43-31.1L19.43-31.1Q18.85-31.15 18.72-31.13 18.6-31.1 18.45-31.1L18.45-31.1Q18.06-31.1 17.87-31.3L17.87-31.3 17.87-31.93Q17.58-32.52 17.62-32.57 17.67-32.62 17.67-32.71L17.67-32.71Q17.67-32.86 17.4-33.03 17.14-33.2 17.14-33.59L17.14-33.59Q17.09-33.98 16.94-34.18 16.79-34.38 16.79-34.57L16.79-34.57Q16.79-34.91 16.94-35.35L16.94-35.35Q17.38-35.6 17.8-35.69 18.21-35.79 18.75-35.94L18.75-35.94Q19.04-36.04 19.28-36.13 19.53-36.23 19.82-36.28L19.82-36.28Q20.16-36.33 20.51-36.33 20.85-36.33 21.19-36.38L21.19-36.38Q21.92-36.52 22.73-36.62 23.53-36.72 24.27-36.72L24.27-36.72Q24.95-36.72 25.63-36.55 26.32-36.38 26.85-36.38L26.85-36.38Q27.63-36.38 28.34-36.28 29.05-36.18 29.83-36.18L29.83-36.18Q29.93-36.18 30.15-36.11 30.37-36.04 30.66-36.04L30.66-36.04 35.4-36.04Q35.79-35.94 35.96-35.99 36.13-36.04 36.28-36.04L36.28-36.04Q36.67-36.04 37.01-35.99 37.35-35.94 37.74-35.94L37.74-35.94Q38.08-35.94 38.28-35.99L38.28-35.99Q38.67-35.94 39.01-35.77 39.35-35.6 39.79-35.6L39.79-35.6Q39.99-35.45 40.09-35.23 40.18-35.01 40.43-34.91ZM66.45-19.38L66.45-19.38Q66.35-19.19 66.25-19.02 66.16-18.85 66.11-18.65L66.11-18.65Q66.3-18.46 66.47-18.24 66.65-18.02 66.65-17.77L66.65-17.77Q66.65-17.58 66.57-17.41 66.5-17.24 66.55-17.09L66.55-17.09Q66.35-16.75 66.13-16.46 65.91-16.16 65.82-15.82L65.82-15.82Q65.62-15.63 65.5-15.43 65.38-15.23 65.28-15.04L65.28-15.04Q65.03-14.94 64.96-14.72 64.89-14.5 64.69-14.36L64.69-14.36Q64.64-14.16 64.2-13.43 63.76-12.7 63.23-11.87 62.69-11.04 62.2-10.25 61.71-9.47 61.52-9.23L61.52-9.23Q61.42-8.98 61.3-8.84 61.18-8.69 61.03-8.5L61.03-8.5Q60.93-8.35 60.88-8.18 60.83-8.01 60.74-7.91L60.74-7.91Q60.64-7.71 60.52-7.57 60.4-7.42 60.3-7.18L60.3-7.18Q59.81-6.54 59.32-5.66 58.83-4.79 58.39-4.1L58.39-4.1Q58.15-3.71 57.93-3.32 57.71-2.93 57.47-2.54L57.47-2.54Q57.22-2.15 56.98-1.81 56.73-1.46 56.49-1.07L56.49-1.07Q56.1-0.78 55.81-0.37 55.51 0.05 55.12 0.34L55.12 0.34Q54.49 0.34 54.34-0.24L54.34-0.24Q53.71-0.39 53.71-0.24 53.71-0.1 53.71 0L53.71 0Q53.51 0.1 53.44 0.29 53.36 0.49 53.17 0.59L53.17 0.59Q52.78 0.49 52.51 0.27 52.24 0.05 51.75 0.1L51.75 0.1Q51.56-0.2 51.31-0.42 51.07-0.63 50.87-0.88L50.87-0.88Q50.78-1.17 50.61-1.37 50.43-1.56 50.29-1.76L50.29-1.76Q50.14-2 50-2.2 49.85-2.39 49.7-2.59L49.7-2.59Q49.36-3.03 49.04-3.44 48.73-3.86 48.48-4.3L48.48-4.3Q48.09-4.88 47.72-5.49 47.36-6.1 46.97-6.69L46.97-6.69Q46.77-6.98 46.58-7.28 46.38-7.57 46.24-7.86L46.24-7.86Q46.14-8.11 45.97-8.45 45.8-8.79 45.55-8.89L45.55-8.89Q45.45-9.28 45.21-9.47 44.97-9.67 44.72-9.96L44.72-9.96Q44.38-10.35 44.09-10.82 43.79-11.28 43.5-11.77L43.5-11.77Q42.52-13.13 41.67-14.45 40.82-15.77 39.99-17.19L39.99-17.19Q40.23-17.97 40.23-18.36 40.23-18.75 40.47-18.99L40.47-18.99Q40.47-19.19 40.57-19.58L40.57-19.58Q41.21-20.65 41.79-21.53L41.79-21.53Q42.33-22.36 42.55-22.9 42.77-23.44 43.01-24.02L43.01-24.02Q43.26-24.17 43.4-24.39 43.55-24.61 43.79-24.8L43.79-24.8Q43.89-25.34 44.23-25.71 44.58-26.07 44.67-26.61L44.67-26.61Q45.11-26.95 45.16-27.39L45.16-27.39Q45.8-27.83 45.94-28.56L45.94-28.56Q46.33-28.96 46.6-29.44 46.87-29.93 47.11-30.47L47.11-30.47Q47.7-30.96 48.04-31.74L48.04-31.74Q48.33-31.93 48.48-32.28 48.63-32.62 48.87-32.86L48.87-32.86Q49.26-33.5 49.48-33.91 49.7-34.33 49.95-34.77L49.95-34.77Q50.29-34.77 50.39-35.01 50.48-35.25 50.78-35.21L50.78-35.21Q50.78-35.64 51.02-35.99L51.02-35.99Q51.12-36.04 51.31-36.11 51.51-36.18 51.51-36.28L51.51-36.28Q51.41-36.87 51.56-36.96 51.7-37.06 51.8-37.16L51.8-37.16Q52.34-37.06 52.53-37.01 52.73-36.96 53.17-36.67L53.17-36.67Q53.66-36.67 53.85-36.47 54.05-36.28 54.29-36.18L54.29-36.18Q54.49-35.99 54.61-35.79 54.73-35.6 54.98-35.5L54.98-35.5Q55.37-34.96 55.81-34.33 56.25-33.69 56.64-33.15L56.64-33.15Q57.17-32.42 57.73-31.76 58.3-31.1 58.78-30.32L58.78-30.32Q58.93-30.08 59.32-29.47 59.71-28.86 60.2-28.17 60.69-27.49 61.08-26.93 61.47-26.37 61.62-26.27L61.62-26.27Q61.76-26.03 62.25-25.34 62.74-24.66 63.3-23.9 63.86-23.14 64.4-22.46 64.94-21.78 65.13-21.58L65.13-21.58Q65.67-20.85 65.94-20.39 66.21-19.92 66.45-19.38ZM55.27-10.21L55.27-10.21Q55.81-10.94 56.1-11.52 56.39-12.11 56.68-12.7L56.68-12.7Q57.17-13.28 57.27-13.53 57.37-13.77 57.51-14.01L57.51-14.01Q57.91-14.6 58.32-15.19 58.74-15.77 58.98-16.46L58.98-16.46Q59.27-16.65 59.42-16.94 59.57-17.24 59.86-17.48L59.86-17.48Q59.57-18.51 59.17-19.07 58.78-19.63 58.39-20.17L58.39-20.17Q58.25-20.41 58.1-20.65 57.95-20.9 57.81-21.14L57.81-21.14Q57.61-21.29 57.49-21.44 57.37-21.58 57.22-21.73L57.22-21.73Q57.12-21.97 56.93-22.36L56.93-22.36Q56.73-22.61 56.54-22.8 56.34-23 56.2-23.29L56.2-23.29Q56-23.49 55.71-23.83 55.41-24.17 55.1-24.58 54.78-25 54.54-25.37 54.29-25.73 54.15-25.98L54.15-25.98Q54.05-26.22 53.97-26.39 53.9-26.56 53.8-26.76L53.8-26.76Q53.56-27.1 53.32-27.37 53.07-27.64 52.83-27.98L52.83-27.98Q52.68-27.88 52.56-27.86 52.44-27.83 52.34-27.73L52.34-27.73Q52-27.1 51.58-26.56 51.17-26.03 50.78-25.39L50.78-25.39Q50.43-24.8 50.09-24.19 49.75-23.58 49.41-23L49.41-23Q49.16-22.66 48.95-22.34 48.73-22.02 48.48-21.63L48.48-21.63Q48.24-21.29 48.07-20.92 47.9-20.56 47.65-20.21L47.65-20.21Q47.26-19.73 47.02-19.34 46.77-18.95 46.53-18.41L46.53-18.41Q46.67-18.12 46.99-17.6 47.31-17.09 47.65-16.58 47.99-16.06 48.26-15.63 48.53-15.19 48.58-15.04L48.58-15.04Q48.97-14.7 49.21-14.28 49.46-13.87 49.85-13.48L49.85-13.48Q50.04-13.09 50.29-12.79 50.53-12.5 50.78-12.16L50.78-12.16Q51.02-11.82 51.41-11.16 51.8-10.5 52.19-9.81 52.58-9.13 52.97-8.54 53.36-7.96 53.61-7.81L53.61-7.81Q54.1-8.35 54.41-9.01 54.73-9.67 55.27-10.21ZM91.35-4.69L91.35-4.69Q91.3-3.96 91.67-3.59 92.03-3.22 92.28-2.69L92.28-2.69Q92.18-2 92.42-1.61L92.42-1.61Q92.28-1.32 92.13-0.95 91.98-0.59 91.69-0.34L91.69-0.34Q90.91 0 90.76 0.24 90.62 0.49 90.18 0.49L90.18 0.49Q89.93 0.73 89.64 1 89.35 1.27 89.1 1.51L89.1 1.51Q88.86 1.42 88.76 1.27 88.66 1.12 88.47 0.88L88.47 0.88Q87.98 0.73 87.59 0.37 87.2 0 86.91-0.46 86.61-0.93 86.35-1.44 86.08-1.95 85.88-2.39L85.88-2.39Q85.2-3.66 84.49-4.96 83.78-6.25 83.05-7.52L83.05-7.52Q82.66-8.15 82.29-8.81 81.93-9.47 81.54-10.16L81.54-10.16Q81.44-10.25 81.34-10.38 81.24-10.5 81.14-10.64L81.14-10.64Q80.8-11.13 80.63-11.74 80.46-12.35 79.92-12.74L79.92-12.74Q79-12.84 78.24-12.48 77.48-12.11 76.9-11.52L76.9-11.52Q76.95-11.18 76.95-10.89 76.95-10.6 76.95-10.3L76.95-10.3Q76.95-9.18 76.85-8.15 76.75-7.13 76.75-6.01L76.75-6.01Q76.75-5.52 76.8-5 76.85-4.49 76.95-4L76.95-4Q76.8-3.47 76.8-2.83L76.8-2.83Q76.8-2.49 76.87-2.2 76.95-1.9 76.95-1.56L76.95-1.56Q76.95-1.07 76.63-0.9 76.31-0.73 76.41-0.29L76.41-0.29Q75.82-0.05 75.29 0.2 74.75 0.44 74.16 0.54L74.16 0.54Q73.92 0.59 73.67 0.56 73.43 0.54 73.23 0.63L73.23 0.63Q72.99 0.73 72.84 1 72.7 1.27 72.45 1.27L72.45 1.27Q72.16 1.27 72.11 1.05 72.06 0.83 71.92 0.68L71.92 0.68Q71.67 0.59 71.53 0.59 71.38 0.59 71.23 0.44L71.23 0.44Q71.28 0 71.04-0.22 70.79-0.44 70.79-1.12L70.79-1.12Q70.79-1.66 70.87-2.15 70.94-2.64 70.94-3.17L70.94-3.17Q70.94-3.61 70.82-3.98 70.7-4.35 70.6-4.79L70.6-4.79Q70.55-4.98 70.6-5.18 70.65-5.37 70.65-5.57L70.65-5.57Q70.65-6.45 70.57-7.35 70.5-8.25 70.5-9.13L70.5-9.13Q70.5-9.47 70.5-9.77 70.5-10.06 70.55-10.35L70.55-10.35Q70.65-10.64 70.72-10.84 70.79-11.04 70.79-11.33L70.79-11.33Q70.79-12.26 70.6-13.16 70.4-14.06 70.4-14.94L70.4-14.94Q70.4-15.43 70.43-15.94 70.45-16.46 70.45-16.94L70.45-16.94Q70.45-18.36 70.4-19.73 70.35-21.09 70.35-22.46L70.35-22.46Q70.35-23.44 70.4-24.39 70.45-25.34 70.45-26.32L70.45-26.32Q70.45-27.54 70.35-28.74 70.26-29.93 70.26-31.2L70.26-31.2Q70.26-31.64 70.21-31.79 70.16-31.93 70.06-31.96 69.96-31.98 69.84-32.01 69.72-32.03 69.62-32.18L69.62-32.18Q69.62-32.47 69.87-32.59 70.11-32.71 70.11-33.4L70.11-33.4Q70.11-33.79 70.04-34.18 69.96-34.57 69.96-34.96L69.96-34.96Q69.96-35.55 70.21-36.13 70.45-36.72 70.65-37.26L70.65-37.26Q71.23-37.3 71.45-37.26 71.67-37.21 71.92-37.3L71.92-37.3Q72.06-36.77 72.55-36.74 73.04-36.72 73.43-36.62L73.43-36.62Q73.87-36.57 74.28-36.4 74.7-36.23 75.09-36.23L75.09-36.23Q75.19-35.94 75.51-35.82 75.82-35.69 76.16-35.6L76.16-35.6Q76.56-35.64 76.77-35.94 76.99-36.23 77.39-36.23L77.39-36.23Q77.68-36.23 78.07-35.82 78.46-35.4 78.65-35.16L78.65-35.16Q78.85-35.01 79.39-34.52 79.92-34.03 80.56-33.52 81.19-33.01 81.73-32.54 82.27-32.08 82.41-32.03L82.41-32.03Q84.42-30.03 86.15-28.39 87.88-26.76 89.93-25.44L89.93-25.44Q89.98-25.29 90.06-25.2 90.13-25.1 90.23-24.95L90.23-24.95Q90.23-24.56 90.08-24.37 89.93-24.17 89.93-23.88L89.93-23.88Q89.93-23.73 90.01-23.58 90.08-23.44 90.08-23.29L90.08-23.29Q90.13-23.1 90.1-22.92 90.08-22.75 90.08-22.56L90.08-22.56Q90.08-22.07 90.4-21.68 90.72-21.29 90.72-20.8L90.72-20.8Q90.62-20.36 90.32-20.26 90.03-20.17 89.84-20.02L89.84-20.02Q89.74-19.92 89.67-19.78 89.59-19.63 89.49-19.53L89.49-19.53Q88.42-19.04 87.93-18.63 87.44-18.21 86.91-17.82L86.91-17.82Q86.76-17.72 86.42-17.5 86.08-17.29 85.73-17.07 85.39-16.85 85.12-16.6 84.86-16.36 84.86-16.21L84.86-16.21Q84.86-15.87 85.27-15.26 85.69-14.65 85.88-14.31L85.88-14.31Q86.42-13.43 86.86-12.57 87.3-11.72 87.83-10.89L87.83-10.89Q88.81-9.38 89.67-7.81 90.52-6.25 91.35-4.69ZM83.39-22.85L83.39-22.85Q82.27-24.27 80.97-25.42 79.68-26.56 78.51-27.83L78.51-27.83 77.97-27.93Q77.68-28.42 77.31-28.78 76.95-29.15 76.56-29.54L76.56-29.54Q76.6-29 76.6-28.52 76.6-28.03 76.6-27.49L76.6-27.49Q76.6-25.93 76.53-24.44 76.46-22.95 76.46-21.44L76.46-21.44Q76.46-19.92 76.6-18.55L76.6-18.55Q77.63-18.55 78.46-19.14L78.46-19.14Q78.8-19.38 79.09-19.65 79.39-19.92 79.73-20.17L79.73-20.17Q80.12-20.41 80.63-20.75 81.14-21.09 81.66-21.44 82.17-21.78 82.63-22.14 83.1-22.51 83.39-22.85ZM115.27-34.57L115.27-34.57Q114.74-33.59 114.05-32.28 113.37-30.96 112.98-29.98L112.98-29.98Q112.83-29.64 112.71-29.32 112.59-29 112.44-28.66L112.44-28.66Q112.2-27.93 111.83-27.27 111.46-26.61 111.17-25.88L111.17-25.88Q110.73-24.9 110.27-23.9 109.8-22.9 109.37-21.83L109.37-21.83Q108.88-20.85 108.61-20.14 108.34-19.43 108.05-18.7 107.75-17.97 107.53-17.26 107.31-16.55 107.17-15.97L107.17-15.97Q106.73-15.19 106.44-14.79L106.44-14.79Q106.34-13.92 106.24-13.04 106.14-12.16 106.14-11.23L106.14-11.23Q106.14-10.79 106.22-10.38 106.29-9.96 106.34-9.52L106.34-9.52Q106.39-8.89 106.36-8.28 106.34-7.67 106.39-7.03L106.39-7.03Q106.44-5.81 106.51-4.61 106.58-3.42 106.63-2.15L106.63-2.15Q106.68-1.27 106.56-0.66 106.44-0.05 106.48 0.59L106.48 0.59Q106.34 0.68 106.17 0.73 106 0.78 105.85 0.88L105.85 0.88Q105.31 0.88 105.14 0.85 104.97 0.83 104.82 0.93L104.82 0.93Q104.38 0.63 104.34 0.66 104.29 0.68 104.24 0.68L104.24 0.68Q103.65 0.49 103.6 0.39 103.55 0.29 103.41 0.2L103.41 0.2Q102.87 0.2 102.53 0.34L102.53 0.34Q102.38 0.24 102.28 0.15 102.19 0.05 102.04-0.05L102.04-0.05Q101.6-0.1 101.31-0.17 101.02-0.24 100.82-0.34L100.82-0.34Q100.67-0.73 100.5-1.03 100.33-1.32 100.33-1.81L100.33-1.81Q100.33-2.2 100.43-2.54 100.53-2.88 100.58-3.27L100.58-3.27Q100.58-3.52 100.55-3.71 100.53-3.91 100.53-4.15L100.53-4.15Q100.53-4.39 100.62-4.79L100.62-4.79Q100.48-5.91 100.5-7.15 100.53-8.4 100.53-9.52L100.53-9.52Q100.53-10.64 100.33-11.62L100.33-11.62Q100.38-12.26 100.33-12.52 100.28-12.79 100.28-13.09L100.28-13.09Q100.28-13.33 100.33-13.6 100.38-13.87 100.38-14.11L100.38-14.11Q100.38-14.16 100.31-14.62 100.23-15.09 100.14-15.6 100.04-16.11 99.94-16.58 99.84-17.04 99.84-17.14L99.84-17.14Q99.36-18.02 99.11-18.8 98.87-19.58 98.57-20.12L98.57-20.12Q98.38-20.51 98.18-20.9 97.99-21.29 97.84-21.73L97.84-21.73Q97.74-21.97 97.67-22.27 97.6-22.56 97.5-22.8L97.5-22.8Q97.3-23.19 97.13-23.66 96.96-24.12 96.72-24.41L96.72-24.41Q96.52-24.85 96.35-25.22 96.18-25.59 96.18-25.93L96.18-25.93Q96.03-26.51 95.72-26.98 95.4-27.44 95.16-27.93L95.16-27.93Q95.01-28.22 94.94-28.47 94.86-28.71 94.77-28.96L94.77-28.96Q94.67-29.15 94.5-29.44 94.33-29.74 94.13-29.88L94.13-29.88Q94.03-30.32 93.79-30.66 93.54-31.01 93.45-31.45L93.45-31.45Q93.2-31.79 92.91-32.13L92.91-32.13Q92.71-32.86 92.37-33.47 92.03-34.08 91.74-34.77L91.74-34.77Q91.93-35.79 92.86-36.04L92.86-36.04Q93.35-36.62 93.45-36.67 93.54-36.72 93.89-36.72L93.89-36.72Q94.18-36.96 94.47-37.13 94.77-37.3 95.16-37.21L95.16-37.21Q95.2-37.4 95.42-37.55 95.64-37.7 95.84-37.7L95.84-37.7Q96.13-37.7 96.35-37.4 96.57-37.11 96.82-36.96L96.82-36.96Q97.21-36.28 97.62-35.64 98.04-35.01 98.33-34.33L98.33-34.33Q98.67-33.64 98.94-32.96 99.21-32.28 99.75-31.64L99.75-31.64Q99.99-30.66 100.5-29.81 101.02-28.96 101.36-27.98L101.36-27.98Q101.6-27.39 101.92-26.83 102.24-26.27 102.48-25.63L102.48-25.63Q102.63-25.34 102.72-25.05 102.82-24.76 102.92-24.46L102.92-24.46Q103.02-24.22 103.12-23.83 103.21-23.44 103.36-23.19L103.36-23.19Q103.7-23.54 103.95-24.07L103.95-24.07Q104.29-24.76 104.65-25.37 105.02-25.98 105.31-26.66L105.31-26.66Q105.7-27.29 105.87-27.98 106.04-28.66 106.29-29.35L106.29-29.35Q106.39-29.59 106.51-29.83 106.63-30.08 106.73-30.37L106.73-30.37Q106.87-30.66 106.97-30.96 107.07-31.25 107.17-31.54L107.17-31.54Q107.51-32.47 107.92-33.37 108.34-34.28 108.78-35.21L108.78-35.21Q108.83-35.35 109-35.64 109.17-35.94 109.39-36.25 109.61-36.57 109.8-36.82 110-37.06 110.15-37.16L110.15-37.16Q110.24-37.26 110.46-37.28 110.68-37.3 110.83-37.35L110.83-37.35Q111.27-37.35 111.46-37.11L111.46-37.11Q112.05-36.87 112.34-36.77 112.64-36.67 112.78-36.33L112.78-36.33Q113.52-35.84 113.88-35.77 114.25-35.69 114.44-35.35L114.44-35.35Q114.98-35.01 115.08-34.86 115.18-34.72 115.27-34.57ZM128.16-36.33L128.16-36.33Q128.5-35.69 128.5-34.86L128.5-34.86Q128.5-34.13 128.21-33.3 127.92-32.47 127.28-32.03L127.28-32.03Q126.84-31.05 126.43-30.44 126.01-29.83 125.62-29.25L125.62-29.25Q125.48-28.91 125.33-28.59 125.18-28.27 124.94-27.93L124.94-27.93Q124.79-27.69 124.3-26.95 123.82-26.22 123.3-25.42 122.79-24.61 122.4-23.88 122.01-23.14 122.01-22.95L122.01-22.95Q122.01-22.75 122.47-22.46 122.94-22.17 123.08-22.02L123.08-22.02Q123.33-21.78 123.55-21.53 123.77-21.29 124.01-21.04L124.01-21.04Q124.55-20.61 125.06-20.17 125.57-19.73 126.11-19.19L126.11-19.19Q127.14-18.26 128.26-17.43 129.38-16.6 130.26-15.48L130.26-15.48Q131.09-15.23 131.34-14.31 131.58-13.38 131.48-12.55L131.48-12.55Q131.58-12.4 131.65-12.26 131.73-12.11 131.82-11.91L131.82-11.91Q131.82-11.13 131.6-10.77 131.38-10.4 131.14-9.86L131.14-9.86Q130.9-9.38 130.82-8.89 130.75-8.4 130.51-8.01L130.51-8.01Q130.41-7.86 130.24-7.76 130.07-7.67 129.97-7.47L129.97-7.47Q129.77-7.13 129.65-6.67 129.53-6.2 129.33-5.81L129.33-5.81Q129.19-5.42 128.97-5.03 128.75-4.64 128.6-4.25L128.6-4.25Q128.5-4 128.43-3.66 128.36-3.32 127.97-3.17L127.97-3.17Q127.72-2.29 127.31-1.46 126.89-0.63 126.65 0.24L126.65 0.24Q126.21 0.39 125.55 0.81 124.89 1.22 124.5 1.22L124.5 1.22Q124.35 1.22 124.26 1.07 124.16 0.93 123.96 0.83L123.96 0.83Q123.86 0.78 123.69 0.83 123.52 0.88 123.43 0.88L123.43 0.88Q123.18 0.88 123.06 0.68 122.94 0.49 122.74 0.39L122.74 0.39Q122.59 0.44 122.45 0.49 122.3 0.54 122.16 0.54L122.16 0.54Q121.81 0.54 121.76 0.37 121.72 0.2 121.47 0.05L121.47 0.05Q120.89-0.24 120.79-0.49 120.69-0.73 120.5-0.83L120.5-0.83Q120.84-2.1 121.42-3.25 122.01-4.39 122.55-5.57L122.55-5.57Q122.69-5.96 122.91-6.3 123.13-6.64 123.33-7.03L123.33-7.03Q123.47-7.37 123.77-7.91 124.06-8.45 124.3-9.03 124.55-9.62 124.74-10.13 124.94-10.64 124.94-10.99L124.94-10.99Q124.94-11.67 124.55-12.01L124.55-12.01Q123.13-13.18 121.89-14.4 120.64-15.63 119.27-16.89L119.27-16.89Q118.4-17.68 117.37-18.51L117.37-18.51Q117.18-18.65 117.08-18.95 116.98-19.24 116.78-19.48L116.78-19.48Q116.69-19.68 116.49-19.78 116.3-19.87 116.2-20.07L116.2-20.07Q116.05-20.26 116-20.53 115.95-20.8 115.71-20.95L115.71-20.95Q115.47-21.19 115.12-21.24 114.78-21.29 114.54-21.53L114.54-21.53Q114.68-21.68 114.66-21.85 114.64-22.02 114.64-22.17L114.64-22.17Q114.64-22.51 114.93-22.66 115.22-22.8 115.22-23.19L115.22-23.19Q115.42-23.58 115.51-23.68L115.51-23.68Q116.05-25 116.74-26.22 117.42-27.44 118.15-28.66L118.15-28.66Q118.4-29.05 118.62-29.42 118.84-29.79 119.08-30.18L119.08-30.18Q119.23-30.52 119.35-30.79 119.47-31.05 119.71-31.3L119.71-31.3Q120.4-32.08 120.86-32.76 121.33-33.45 121.57-34.42L121.57-34.42Q121.62-34.67 121.76-35.11 121.91-35.55 122.13-35.99 122.35-36.43 122.59-36.77 122.84-37.11 123.13-37.11L123.13-37.11Q123.38-37.11 123.84-36.91 124.3-36.72 124.65-36.62L124.65-36.62Q124.94-36.52 125.26-36.45 125.57-36.38 125.87-36.38L125.87-36.38Q126.06-36.38 126.26-36.5 126.45-36.62 126.7-36.62L126.7-36.62Q127.09-36.62 127.43-36.5 127.77-36.38 128.16-36.33ZM139.24-35.5L139.24-35.5Q139.44-35.55 139.58-35.64 139.73-35.74 139.93-35.74L139.93-35.74Q140.07-35.69 140.15-35.55 140.22-35.4 140.37-35.3L140.37-35.3Q140.51-35.4 140.63-35.5 140.76-35.6 140.9-35.64L140.9-35.64Q141.39-35.5 141.44-35.16L141.44-35.16Q141.68-35.06 141.88-34.94 142.07-34.81 142.32-34.77L142.32-34.77Q142.42-34.57 142.56-34.47 142.71-34.38 142.9-34.18L142.9-34.18Q143.39-34.08 144.2-33.64 145-33.2 145.49-32.96L145.49-32.96Q145.98-32.71 146.47-32.47 146.96-32.23 147.4-31.93L147.4-31.93Q147.84-31.69 148.28-31.37 148.72-31.05 149.2-30.86L149.2-30.86Q149.64-30.32 150.33-30.18 151.01-30.03 151.55-29.64L151.55-29.64Q151.99-29.39 152.38-29.13 152.77-28.86 153.16-28.61L153.16-28.61Q153.31-28.37 153.53-28.22 153.74-28.08 153.94-27.83L153.94-27.83Q154.92-27.29 155.06-27L155.06-27Q155.21-26.9 155.5-26.71 155.8-26.51 156.09-26.29 156.38-26.07 156.63-25.85 156.87-25.63 156.92-25.44L156.92-25.44Q156.72-25 156.72-24.73 156.72-24.46 156.53-24.27L156.53-24.27Q156.82-23.88 156.82-23.54L156.82-23.54Q156.58-22.95 155.99-22.56L155.99-22.56Q155.84-22.17 155.53-21.95 155.21-21.73 155.11-21.34L155.11-21.34Q154.72-21.09 154.65-20.95 154.57-20.8 154.48-20.65L154.48-20.65Q153.55-19.68 152.74-18.97 151.94-18.26 151.25-17.43L151.25-17.43Q150.77-17.19 150.42-16.82 150.08-16.46 149.79-16.02L149.79-16.02Q149.4-15.63 149.03-15.26 148.67-14.89 148.28-14.55L148.28-14.55Q148.18-14.36 147.96-14.23 147.74-14.11 147.64-13.87L147.64-13.87Q147.1-13.62 146.76-13.18 146.42-12.74 145.93-12.45L145.93-12.45 145.59-11.96Q145.44-11.87 145.18-11.65 144.91-11.43 144.64-11.16 144.37-10.89 144.17-10.64 143.98-10.4 143.93-10.25L143.93-10.25Q143.78-10.21 143.47-9.96 143.15-9.72 142.83-9.42 142.51-9.13 142.25-8.84 141.98-8.54 141.93-8.45L141.93-8.45 141.44-8.11Q141.49-6.79 141.51-5.44 141.54-4.1 141.54-2.78L141.54-2.78 141.54-1.12 141.2-0.68Q140.95-0.68 140.81-0.78 140.66-0.88 140.46-0.88L140.46-0.88Q140.27-0.88 140.1-0.68 139.93-0.49 139.78-0.39L139.78-0.39Q139.44-0.34 139.22-0.22 139-0.1 138.75 0L138.75 0Q138.46-0.15 138.17-0.15L138.17-0.15Q137.53 0 137.56-0.1 137.58-0.2 137.34-0.2L137.34-0.2Q136.95 0.2 136.85 0.2L136.85 0.2Q136.65 0.2 136.48 0.24 136.31 0.29 136.12 0.29L136.12 0.29Q135.92-0.1 135.8-0.51 135.68-0.93 135.34-1.32L135.34-1.32Q135.48-1.81 135.29-2L135.29-2Q135.58-2.54 135.53-3.22 135.48-3.91 135.48-4.49L135.48-4.49Q135.48-4.83 135.51-5.15 135.53-5.47 135.53-5.76L135.53-5.76Q135.53-6.35 135.43-6.96 135.34-7.57 135.34-8.2L135.34-8.2Q135.34-9.67 135.43-11.16 135.53-12.65 135.53-14.11L135.53-14.11Q135.53-14.94 135.46-15.82 135.39-16.7 135.39-17.53L135.39-17.53Q135.39-18.07 135.43-18.53 135.48-18.99 135.53-19.43L135.53-19.43Q135.53-21.68 135.61-23.75 135.68-25.83 135.68-27.88L135.68-27.88Q135.68-28.56 135.65-29.17 135.63-29.79 135.63-30.47L135.63-30.47Q135.63-30.81 135.68-31.15 135.73-31.49 135.73-31.84L135.73-31.84Q135.87-33.35 135.87-34.86L135.87-34.86 135.82-35.64Q136.02-35.94 136.41-35.94L136.41-35.94Q136.95-35.94 137.24-35.6L137.24-35.6Q137.58-35.64 137.9-35.72 138.22-35.79 138.51-35.79L138.51-35.79Q138.95-35.79 139.24-35.5ZM142.22-27.88L142.12-27.73Q142.12-27.49 142.07-27.37 142.03-27.25 141.98-27.15L141.98-27.15Q141.98-27 142-26.83 142.03-26.66 142.03-26.46L142.03-26.46Q142.03-25.34 142-24.24 141.98-23.14 141.98-22.07L141.98-22.07 141.88-19.48Q141.88-19.24 141.93-18.95 141.98-18.65 141.98-18.41L141.98-18.41Q141.98-18.16 141.93-17.92 141.88-17.68 141.88-17.43L141.88-17.43Q141.88-16.8 142.03-16.16L142.03-16.16Q142.27-16.26 142.37-16.48 142.47-16.7 142.61-16.85L142.61-16.85Q143.74-17.87 144.71-18.99 145.69-20.12 146.71-21.24L146.71-21.24Q147.59-22.17 148.23-22.75 148.86-23.34 149.2-24.17L149.2-24.17Q148.37-24.71 147.49-25.27 146.62-25.83 145.64-26.22L145.64-26.22Q145.59-26.32 145.37-26.46 145.15-26.61 144.91-26.73 144.66-26.86 144.42-26.95 144.17-27.05 144.08-27.05L144.08-27.05Q143.64-27.44 143.15-27.54L143.15-27.54Q142.81-27.54 142.56-27.66 142.32-27.78 142.22-27.88L142.22-27.88ZM180.01-36.28L180.5-36.13Q181.09-36.28 181.33-36.25 181.57-36.23 181.82-36.18L181.82-36.18Q182.11-35.99 182.31-35.69L182.31-35.69Q182.31-34.67 182.28-33.67 182.26-32.67 182.26-31.64L182.26-31.64Q182.26-29.79 182.31-27.93 182.36-26.07 182.31-24.22L182.31-24.22Q182.4-23.78 182.36-23.73 182.31-23.68 182.31-23.58L182.31-23.58Q182.31-21.73 182.4-19.92 182.5-18.12 182.5-16.26L182.5-16.26 182.5-9.77Q182.5-7.67 182.62-5.62 182.75-3.56 182.75-1.51L182.75-1.51Q182.75-1.32 182.5-0.98L182.5-0.98Q182.4-0.59 182.21-0.34L182.21-0.34Q181.77-0.29 181.38-0.49L181.38-0.49Q181.18-0.49 181.11-0.37 181.04-0.24 180.89-0.15L180.89-0.15Q180.5-0.15 180.26 0.05 180.01 0.24 179.67 0.24L179.67 0.24Q179.38 0.24 179.11 0.17 178.84 0.1 178.5 0.1L178.5 0.1Q178.4 0.1 178.21 0.27 178.01 0.44 177.91 0.49L177.91 0.49Q177.67 0.49 177.47 0.56 177.28 0.63 177.03 0.63L177.03 0.63Q176.79 0.44 176.81 0.05 176.84-0.34 176.5-0.44L176.5-0.44Q176.5-0.68 176.52-0.98 176.55-1.27 176.55-1.56L176.55-1.56Q176.55-3.47 176.45-5.4 176.35-7.32 176.3-9.23L176.3-9.23Q176.25-10.06 176.28-10.86 176.3-11.67 176.3-12.5L176.3-12.5Q176.3-12.94 176.3-13.38 176.3-13.82 176.2-14.21L176.2-14.21Q175.91-14.26 175.69-14.14 175.47-14.01 175.23-14.01L175.23-14.01Q174.2-13.67 173.86-13.33L173.86-13.33Q173.57-13.33 173.37-13.23 173.18-13.13 172.93-13.04L172.93-13.04Q172.54-12.94 172.17-12.87 171.81-12.79 171.42-12.65L171.42-12.65Q171.17-12.55 170.93-12.45 170.69-12.35 170.44-12.26L170.44-12.26Q169.9-12.06 169.37-11.89 168.83-11.72 168.29-11.52L168.29-11.52Q167.76-11.43 167.37-11.23 166.97-11.04 166.58-10.84L166.58-10.84Q166.24-8.54 166.22-6.47 166.19-4.39 166.34-2.34L166.34-2.34Q166.24-2.05 166.24-1.68 166.24-1.32 166.1-1.07L166.1-1.07Q165.56-0.93 165.39-1.05 165.22-1.17 165.02-1.27L165.02-1.27Q164.83-1.22 164.7-1.07 164.58-0.93 164.48-0.83L164.48-0.83Q164.09-0.83 163.87-0.66 163.65-0.49 163.46-0.39L163.46-0.39Q163.31-0.34 163.17-0.39 163.02-0.44 162.82-0.34L162.82-0.34Q162.34-0.34 162.36-0.46 162.38-0.59 162.24-0.59L162.24-0.59Q162.04-0.59 161.97-0.42 161.9-0.24 161.7-0.15L161.7-0.15Q161.51-0.05 161.26-0.02 161.02 0 160.77 0.1L160.77 0.1Q160.53-0.15 160.53-0.44 160.53-0.73 160.29-0.98L160.29-0.98Q160.19-1.66 160.16-2.32 160.14-2.98 159.99-3.66L159.99-3.66Q160.09-5.03 160.07-5.86 160.04-6.69 160.04-7.57L160.04-7.57Q160.04-8.35 159.99-9.13 159.94-9.91 159.89-10.69L159.89-10.69Q159.8-12.11 159.72-13.57 159.65-15.04 159.65-16.5L159.65-16.5Q159.65-17.72 159.77-18.9 159.89-20.07 159.89-21.29L159.89-21.29Q159.89-22.12 159.92-22.92 159.94-23.73 159.94-24.56L159.94-24.56Q159.94-25.24 159.92-25.9 159.89-26.56 159.89-27.2L159.89-27.2Q159.89-27.93 159.99-28.64 160.09-29.35 160.09-30.03L160.09-30.03Q160.09-30.86 159.99-31.67 159.89-32.47 159.89-33.3L159.89-33.3Q159.89-33.54 159.94-33.76 159.99-33.98 159.99-34.23L159.99-34.23Q159.94-34.77 160.04-34.89 160.14-35.01 160.24-35.21L160.24-35.21Q160.48-35.25 160.77-35.35 161.07-35.45 161.31-35.35L161.31-35.35Q161.6-35.64 162.12-35.64 162.63-35.64 162.87-35.99L162.87-35.99Q163.21-35.94 163.34-35.96 163.46-35.99 163.56-35.99L163.56-35.99Q164-35.89 164.02-36.01 164.05-36.13 164.19-36.13L164.19-36.13Q164.44-36.13 164.95-36.11 165.46-36.08 165.66-35.89L165.66-35.89Q166.14-33.3 166.19-30.62 166.24-27.93 166.24-25.29L166.24-25.29Q166.24-24.61 166.29-23.9 166.34-23.19 166.24-22.51L166.24-22.51Q166.24-22.22 166.19-21.95 166.14-21.68 166.14-21.39L166.14-21.39Q166.14-20.56 166.05-19.65 165.95-18.75 165.95-17.92L165.95-17.92Q166.54-17.58 166.95-17.7 167.37-17.82 167.76-17.97L167.76-17.97Q168.24-18.12 168.66-18.29 169.07-18.46 169.51-18.6L169.51-18.6Q169.9-18.8 170.37-18.92 170.83-19.04 171.22-19.14L171.22-19.14Q172.49-19.58 173.71-20.21 174.93-20.85 176.2-21.24L176.2-21.24Q176.11-23.93 176.11-26.59 176.11-29.25 176.11-31.88L176.11-31.88Q176.11-32.62 176.11-33.4 176.11-34.18 176.2-34.91L176.2-34.91Q176.25-35.11 176.33-35.23 176.4-35.35 176.4-35.6L176.4-35.6Q176.55-35.84 176.74-35.94 176.94-36.04 177.03-36.23L177.03-36.23Q177.13-36.13 177.25-36.06 177.38-35.99 177.52-35.94L177.52-35.94Q177.91-36.04 177.99-36.08 178.06-36.13 178.16-36.18L178.16-36.18Q178.4-36.28 178.79-36.28 179.18-36.28 179.43-36.28L179.43-36.28 180.01-36.28ZM195.88-12.79L195.88-12.79Q195.98-12.55 196.59-11.77 197.2-10.99 197.98-10.06 198.76-9.13 199.47-8.28 200.18-7.42 200.47-7.03L200.47-7.03Q201.01-6.35 201.52-5.69 202.03-5.03 202.47-4.3L202.47-4.3 203.35-2.83Q203.74-2.34 204.06-2 204.37-1.66 204.57-1.07L204.57-1.07Q204.67-0.68 204.67-0.54L204.67-0.54Q204.67-0.2 204.42-0.05L204.42-0.05Q204.03-0.05 204.01 0.07 203.98 0.2 203.79 0.29L203.79 0.29Q203.59 0.39 203.18 0.42 202.76 0.44 202.52 0.44L202.52 0.44Q202.08 0.44 201.42 0.42 200.76 0.39 200.37 0.54L200.37 0.54Q200.27 0.59 200.08 0.68 199.88 0.78 199.78 0.78L199.78 0.78Q199.39 0.78 199.22 0.66 199.05 0.54 198.76 0.49L198.76 0.49Q198.37 0.05 198.1-0.42 197.83-0.88 197.49-1.37L197.49-1.37Q197.15-1.71 196.81-1.98 196.46-2.25 196.22-2.59L196.22-2.59Q195.49-3.66 194.71-4.69 193.93-5.71 193.1-6.69L193.1-6.69Q192.7-7.23 192.27-7.67 191.83-8.11 191.44-8.64L191.44-8.64Q191.04-9.13 190.7-9.69 190.36-10.25 190.02-10.79L190.02-10.79Q189.73-11.23 189.24-11.94 188.75-12.65 188.16-13.35 187.58-14.06 186.99-14.7 186.41-15.33 186.02-15.67L186.02-15.67Q185.97-15.97 185.77-16.14 185.58-16.31 185.33-16.46L185.33-16.46Q185.23-16.7 185.11-16.92 184.99-17.14 184.99-17.38L184.99-17.38Q184.99-17.72 185.14-18.02L185.14-18.02Q185.23-18.21 185.26-18.38 185.28-18.55 185.38-18.75L185.38-18.75Q185.62-19.29 186.04-19.8 186.45-20.31 186.7-20.9L186.7-20.9Q186.8-21.04 186.8-21.22 186.8-21.39 186.89-21.53L186.89-21.53Q186.99-21.92 187.31-22.19 187.63-22.46 187.82-22.8L187.82-22.8Q188.07-23.19 188.29-23.61 188.51-24.02 188.75-24.51L188.75-24.51Q189.48-25.73 190.29-26.88 191.09-28.03 191.92-29.2L191.92-29.2Q192.56-30.18 193.17-31.08 193.78-31.98 194.41-32.91L194.41-32.91Q194.76-33.35 195.15-33.94 195.54-34.52 196-35.11 196.46-35.69 196.95-36.18 197.44-36.67 197.93-36.96L197.93-36.96Q198.66-37.01 198.91-36.65 199.15-36.28 199.64-36.28L199.64-36.28Q200.27-36.13 200.47-35.89 200.66-35.64 200.91-35.4L200.91-35.4Q201.59-35.4 202.01-35.16 202.42-34.91 202.81-34.42L202.81-34.42Q202.67-33.89 202.37-33.47 202.08-33.06 201.84-32.62L201.84-32.62Q201.44-32.42 201.27-32.08 201.1-31.74 200.76-31.54L200.76-31.54Q200.27-30.71 199.74-29.96 199.2-29.2 198.66-28.47L198.66-28.47Q198.37-28.03 198.05-27.69 197.73-27.34 197.49-26.95L197.49-26.95Q197.39-26.81 197.32-26.64 197.25-26.46 197.15-26.32L197.15-26.32Q196.56-25.39 195.88-24.58 195.19-23.78 194.61-22.8L194.61-22.8Q194.41-22.46 194.29-22.09 194.17-21.73 193.97-21.39L193.97-21.39Q193.78-21.09 193.41-20.61 193.05-20.12 192.7-19.56 192.36-18.99 192.09-18.48 191.83-17.97 191.83-17.63L191.83-17.63Q191.87-17.38 192.44-16.67 193-15.97 193.71-15.16 194.41-14.36 195.05-13.65 195.68-12.94 195.88-12.79ZM199.1-21.68L199.1-21.68Q199.44-20.95 199.83-20.41L199.83-20.41Q199.98-20.21 200.18-20.07 200.37-19.92 200.47-19.68L200.47-19.68Q200.57-19.58 200.66-19.26 200.76-18.95 200.86-18.8L200.86-18.8Q201.01-18.41 201.44-17.92 201.88-17.43 201.88-17.04L201.88-17.04Q201.88-16.8 201.79-16.5 201.69-16.21 201.64-15.97L201.64-15.97Q201.59-15.67 201.59-15.36 201.59-15.04 201.4-14.79L201.4-14.79Q201.15-14.55 200.86-14.5 200.57-14.45 200.32-14.26L200.32-14.26Q200.22-14.16 200.03-13.92 199.83-13.67 199.64-13.38 199.44-13.09 199.27-12.82 199.1-12.55 199.1-12.4L199.1-12.4Q198.52-12.35 198.34-12.38 198.17-12.4 197.98-12.35L197.98-12.35Q197.73-12.6 197.47-12.77 197.2-12.94 196.81-13.09L196.81-13.09Q196.71-13.48 196.37-13.99 196.02-14.5 195.78-14.84L195.78-14.84 195.44-15.28Q194.71-16.31 194.1-17.26 193.49-18.21 193.19-19.38L193.19-19.38Q194.12-20.07 194.63-20.41 195.15-20.75 195.73-21.04 196.32-21.34 196.88-21.61 197.44-21.88 197.93-22.27L197.93-22.27Q198.32-22.27 198.47-22.22 198.61-22.17 198.66-22.12 198.71-22.07 198.78-21.95 198.86-21.83 199.1-21.68ZM229.37-4.69L229.37-4.69Q229.32-3.96 229.69-3.59 230.06-3.22 230.3-2.69L230.3-2.69Q230.2-2 230.45-1.61L230.45-1.61Q230.3-1.32 230.15-0.95 230.01-0.59 229.71-0.34L229.71-0.34Q228.93 0 228.79 0.24 228.64 0.49 228.2 0.49L228.2 0.49Q227.96 0.73 227.66 1 227.37 1.27 227.13 1.51L227.13 1.51Q226.88 1.42 226.78 1.27 226.69 1.12 226.49 0.88L226.49 0.88Q226 0.73 225.61 0.37 225.22 0 224.93-0.46 224.64-0.93 224.37-1.44 224.1-1.95 223.9-2.39L223.9-2.39Q223.22-3.66 222.51-4.96 221.8-6.25 221.07-7.52L221.07-7.52Q220.68-8.15 220.31-8.81 219.95-9.47 219.56-10.16L219.56-10.16Q219.46-10.25 219.36-10.38 219.26-10.5 219.17-10.64L219.17-10.64Q218.83-11.13 218.65-11.74 218.48-12.35 217.95-12.74L217.95-12.74Q217.02-12.84 216.26-12.48 215.5-12.11 214.92-11.52L214.92-11.52Q214.97-11.18 214.97-10.89 214.97-10.6 214.97-10.3L214.97-10.3Q214.97-9.18 214.87-8.15 214.77-7.13 214.77-6.01L214.77-6.01Q214.77-5.52 214.82-5 214.87-4.49 214.97-4L214.97-4Q214.82-3.47 214.82-2.83L214.82-2.83Q214.82-2.49 214.89-2.2 214.97-1.9 214.97-1.56L214.97-1.56Q214.97-1.07 214.65-0.9 214.33-0.73 214.43-0.29L214.43-0.29Q213.84-0.05 213.31 0.2 212.77 0.44 212.18 0.54L212.18 0.54Q211.94 0.59 211.7 0.56 211.45 0.54 211.26 0.63L211.26 0.63Q211.01 0.73 210.87 1 210.72 1.27 210.48 1.27L210.48 1.27Q210.18 1.27 210.13 1.05 210.08 0.83 209.94 0.68L209.94 0.68Q209.69 0.59 209.55 0.59 209.4 0.59 209.25 0.44L209.25 0.44Q209.3 0 209.06-0.22 208.82-0.44 208.82-1.12L208.82-1.12Q208.82-1.66 208.89-2.15 208.96-2.64 208.96-3.17L208.96-3.17Q208.96-3.61 208.84-3.98 208.72-4.35 208.62-4.79L208.62-4.79Q208.57-4.98 208.62-5.18 208.67-5.37 208.67-5.57L208.67-5.57Q208.67-6.45 208.6-7.35 208.52-8.25 208.52-9.13L208.52-9.13Q208.52-9.47 208.52-9.77 208.52-10.06 208.57-10.35L208.57-10.35Q208.67-10.64 208.74-10.84 208.82-11.04 208.82-11.33L208.82-11.33Q208.82-12.26 208.62-13.16 208.42-14.06 208.42-14.94L208.42-14.94Q208.42-15.43 208.45-15.94 208.47-16.46 208.47-16.94L208.47-16.94Q208.47-18.36 208.42-19.73 208.38-21.09 208.38-22.46L208.38-22.46Q208.38-23.44 208.42-24.39 208.47-25.34 208.47-26.32L208.47-26.32Q208.47-27.54 208.38-28.74 208.28-29.93 208.28-31.2L208.28-31.2Q208.28-31.64 208.23-31.79 208.18-31.93 208.08-31.96 207.99-31.98 207.86-32.01 207.74-32.03 207.64-32.18L207.64-32.18Q207.64-32.47 207.89-32.59 208.13-32.71 208.13-33.4L208.13-33.4Q208.13-33.79 208.06-34.18 207.99-34.57 207.99-34.96L207.99-34.96Q207.99-35.55 208.23-36.13 208.47-36.72 208.67-37.26L208.67-37.26Q209.25-37.3 209.47-37.26 209.69-37.21 209.94-37.3L209.94-37.3Q210.08-36.77 210.57-36.74 211.06-36.72 211.45-36.62L211.45-36.62Q211.89-36.57 212.31-36.4 212.72-36.23 213.11-36.23L213.11-36.23Q213.21-35.94 213.53-35.82 213.84-35.69 214.19-35.6L214.19-35.6Q214.58-35.64 214.8-35.94 215.02-36.23 215.41-36.23L215.41-36.23Q215.7-36.23 216.09-35.82 216.48-35.4 216.68-35.16L216.68-35.16Q216.87-35.01 217.41-34.52 217.95-34.03 218.58-33.52 219.22-33.01 219.75-32.54 220.29-32.08 220.44-32.03L220.44-32.03Q222.44-30.03 224.17-28.39 225.91-26.76 227.96-25.44L227.96-25.44Q228-25.29 228.08-25.2 228.15-25.1 228.25-24.95L228.25-24.95Q228.25-24.56 228.1-24.37 227.96-24.17 227.96-23.88L227.96-23.88Q227.96-23.73 228.03-23.58 228.1-23.44 228.1-23.29L228.1-23.29Q228.15-23.1 228.13-22.92 228.1-22.75 228.1-22.56L228.1-22.56Q228.1-22.07 228.42-21.68 228.74-21.29 228.74-20.8L228.74-20.8Q228.64-20.36 228.35-20.26 228.05-20.17 227.86-20.02L227.86-20.02Q227.76-19.92 227.69-19.78 227.61-19.63 227.52-19.53L227.52-19.53Q226.44-19.04 225.95-18.63 225.47-18.21 224.93-17.82L224.93-17.82Q224.78-17.72 224.44-17.5 224.1-17.29 223.76-17.07 223.42-16.85 223.15-16.6 222.88-16.36 222.88-16.21L222.88-16.21Q222.88-15.87 223.29-15.26 223.71-14.65 223.9-14.31L223.9-14.31Q224.44-13.43 224.88-12.57 225.32-11.72 225.86-10.89L225.86-10.89Q226.83-9.38 227.69-7.81 228.54-6.25 229.37-4.69ZM221.41-22.85L221.41-22.85Q220.29-24.27 219-25.42 217.7-26.56 216.53-27.83L216.53-27.83 215.99-27.93Q215.7-28.42 215.33-28.78 214.97-29.15 214.58-29.54L214.58-29.54Q214.63-29 214.63-28.52 214.63-28.03 214.63-27.49L214.63-27.49Q214.63-25.93 214.55-24.44 214.48-22.95 214.48-21.44L214.48-21.44Q214.48-19.92 214.63-18.55L214.63-18.55Q215.65-18.55 216.48-19.14L216.48-19.14Q216.82-19.38 217.12-19.65 217.41-19.92 217.75-20.17L217.75-20.17Q218.14-20.41 218.65-20.75 219.17-21.09 219.68-21.44 220.19-21.78 220.66-22.14 221.12-22.51 221.41-22.85ZM240.36-12.79L240.36-12.79Q240.45-12.55 241.06-11.77 241.67-10.99 242.46-10.06 243.24-9.13 243.94-8.28 244.65-7.42 244.95-7.03L244.95-7.03Q245.48-6.35 246-5.69 246.51-5.03 246.95-4.3L246.95-4.3 247.83-2.83Q248.22-2.34 248.53-2 248.85-1.66 249.05-1.07L249.05-1.07Q249.14-0.68 249.14-0.54L249.14-0.54Q249.14-0.2 248.9-0.05L248.9-0.05Q248.51-0.05 248.49 0.07 248.46 0.2 248.27 0.29L248.27 0.29Q248.07 0.39 247.66 0.42 247.24 0.44 247 0.44L247 0.44Q246.56 0.44 245.9 0.42 245.24 0.39 244.85 0.54L244.85 0.54Q244.75 0.59 244.56 0.68 244.36 0.78 244.26 0.78L244.26 0.78Q243.87 0.78 243.7 0.66 243.53 0.54 243.24 0.49L243.24 0.49Q242.85 0.05 242.58-0.42 242.31-0.88 241.97-1.37L241.97-1.37Q241.63-1.71 241.28-1.98 240.94-2.25 240.7-2.59L240.7-2.59Q239.97-3.66 239.18-4.69 238.4-5.71 237.57-6.69L237.57-6.69Q237.18-7.23 236.74-7.67 236.3-8.11 235.91-8.64L235.91-8.64Q235.52-9.13 235.18-9.69 234.84-10.25 234.5-10.79L234.5-10.79Q234.2-11.23 233.72-11.94 233.23-12.65 232.64-13.35 232.06-14.06 231.47-14.7 230.88-15.33 230.49-15.67L230.49-15.67Q230.44-15.97 230.25-16.14 230.05-16.31 229.81-16.46L229.81-16.46Q229.71-16.7 229.59-16.92 229.47-17.14 229.47-17.38L229.47-17.38Q229.47-17.72 229.61-18.02L229.61-18.02Q229.71-18.21 229.74-18.38 229.76-18.55 229.86-18.75L229.86-18.75Q230.1-19.29 230.52-19.8 230.93-20.31 231.18-20.9L231.18-20.9Q231.27-21.04 231.27-21.22 231.27-21.39 231.37-21.53L231.37-21.53Q231.47-21.92 231.79-22.19 232.1-22.46 232.3-22.8L232.3-22.8Q232.54-23.19 232.76-23.61 232.98-24.02 233.23-24.51L233.23-24.51Q233.96-25.73 234.77-26.88 235.57-28.03 236.4-29.2L236.4-29.2Q237.04-30.18 237.65-31.08 238.26-31.98 238.89-32.91L238.89-32.91Q239.23-33.35 239.62-33.94 240.01-34.52 240.48-35.11 240.94-35.69 241.43-36.18 241.92-36.67 242.41-36.96L242.41-36.96Q243.14-37.01 243.38-36.65 243.63-36.28 244.12-36.28L244.12-36.28Q244.75-36.13 244.95-35.89 245.14-35.64 245.39-35.4L245.39-35.4Q246.07-35.4 246.48-35.16 246.9-34.91 247.29-34.42L247.29-34.42Q247.14-33.89 246.85-33.47 246.56-33.06 246.31-32.62L246.31-32.62Q245.92-32.42 245.75-32.08 245.58-31.74 245.24-31.54L245.24-31.54Q244.75-30.71 244.21-29.96 243.68-29.2 243.14-28.47L243.14-28.47Q242.85-28.03 242.53-27.69 242.21-27.34 241.97-26.95L241.97-26.95Q241.87-26.81 241.8-26.64 241.72-26.46 241.63-26.32L241.63-26.32Q241.04-25.39 240.36-24.58 239.67-23.78 239.09-22.8L239.09-22.8Q238.89-22.46 238.77-22.09 238.65-21.73 238.45-21.39L238.45-21.39Q238.26-21.09 237.89-20.61 237.52-20.12 237.18-19.56 236.84-18.99 236.57-18.48 236.3-17.97 236.3-17.63L236.3-17.63Q236.35-17.38 236.91-16.67 237.48-15.97 238.18-15.16 238.89-14.36 239.53-13.65 240.16-12.94 240.36-12.79ZM243.58-21.68L243.58-21.68Q243.92-20.95 244.31-20.41L244.31-20.41Q244.46-20.21 244.65-20.07 244.85-19.92 244.95-19.68L244.95-19.68Q245.04-19.58 245.14-19.26 245.24-18.95 245.34-18.8L245.34-18.8Q245.48-18.41 245.92-17.92 246.36-17.43 246.36-17.04L246.36-17.04Q246.36-16.8 246.26-16.5 246.17-16.21 246.12-15.97L246.12-15.97Q246.07-15.67 246.07-15.36 246.07-15.04 245.87-14.79L245.87-14.79Q245.63-14.55 245.34-14.5 245.04-14.45 244.8-14.26L244.8-14.26Q244.7-14.16 244.51-13.92 244.31-13.67 244.12-13.38 243.92-13.09 243.75-12.82 243.58-12.55 243.58-12.4L243.58-12.4Q242.99-12.35 242.82-12.38 242.65-12.4 242.46-12.35L242.46-12.35Q242.21-12.6 241.94-12.77 241.67-12.94 241.28-13.09L241.28-13.09Q241.19-13.48 240.84-13.99 240.5-14.5 240.26-14.84L240.26-14.84 239.92-15.28Q239.18-16.31 238.57-17.26 237.96-18.21 237.67-19.38L237.67-19.38Q238.6-20.07 239.11-20.41 239.62-20.75 240.21-21.04 240.8-21.34 241.36-21.61 241.92-21.88 242.41-22.27L242.41-22.27Q242.8-22.27 242.94-22.22 243.09-22.17 243.14-22.12 243.19-22.07 243.26-21.95 243.33-21.83 243.58-21.68Z" fill="black"></path></g></svg></g></svg></g></svg></g></svg></g><g><svg viewBox="0 0 108.02563369720794 85.92927523884103" height="85.92927523884103" width="108.02563369720794"><g><svg xmlns="http://www.w3.org/2000/svg" xmlns:xlink="http://www.w3.org/1999/xlink" version="1.1" x="0" y="0" viewBox="14.265999999999998 21.575 71.47 56.851" enable-background="new 0 0 100 100" xml:space="preserve" height="85.92927523884103" width="108.02563369720794" class="icon-icon-0" data-fill-palette-color="accent" id="SvgjsSvg1778"><g fill="black"><path d="M50 21.575c-4.924 0-8.92 3.973-8.92 8.841v0.028c0.028 3.273 0.76 6.91 2.223 9.82 1.436 2.91 3.715 5.176 6.697 5.176 2.982 0 5.261-2.266 6.697-5.176 1.463-2.91 2.193-6.546 2.25-9.82v-0.028C58.947 25.548 54.924 21.575 50 21.575L50 21.575zM50 23.142c4.08 0 7.343 3.246 7.343 7.274-0.027 3.049-0.787 6.519-2.082 9.148s-3.066 4.28-5.261 4.28c-2.195 0-3.968-1.65-5.262-4.28-1.295-2.63-2.055-6.099-2.082-9.148C42.657 26.387 45.92 23.142 50 23.142L50 23.142zM30.473 26.611c-4.192 0-7.597 3.385-7.597 7.526 0.028 2.77 0.675 5.819 1.885 8.281s3.151 4.42 5.712 4.42 4.474-1.958 5.712-4.42c1.21-2.462 1.856-5.511 1.885-8.281C38.07 29.996 34.637 26.611 30.473 26.611L30.473 26.611zM69.527 26.611c-4.164 0-7.598 3.385-7.598 7.526 0.029 2.77 0.676 5.819 1.885 8.281 1.238 2.462 3.152 4.42 5.713 4.42s4.502-1.958 5.711-4.42c1.211-2.462 1.857-5.511 1.887-8.281C77.125 29.996 73.719 26.611 69.527 26.611L69.527 26.611zM30.473 28.178c3.32 0 5.993 2.658 5.993 5.959-0.028 2.518-0.619 5.428-1.716 7.61-1.069 2.154-2.533 3.525-4.277 3.525-1.745 0-3.18-1.371-4.277-3.525-1.069-2.182-1.688-5.092-1.745-7.61C24.452 30.835 27.153 28.178 30.473 28.178L30.473 28.178zM69.527 28.178c3.32 0 6.021 2.658 6.021 5.959-0.057 2.518-0.676 5.428-1.744 7.61-1.098 2.154-2.533 3.525-4.277 3.525s-3.207-1.371-4.277-3.525c-1.098-2.182-1.688-5.092-1.717-7.61C63.533 30.835 66.207 28.178 69.527 28.178L69.527 28.178zM50 46.727c-4.023 0-7.766 1.399-10.833 3.805-2.505-1.818-5.487-2.881-8.694-2.881-9.004 0-16.207 8.309-16.207 18.409 0 1.119 0.084 2.21 0.253 3.273l0.056 0.336 0.253 0.168c4.193 2.882 9.651 4.616 15.645 4.616 1.041 0 2.026-0.057 3.039-0.168 4.643 2.602 10.327 4.141 16.489 4.141 6.162 0 11.873-1.539 16.515-4.141 0.986 0.084 1.998 0.168 3.012 0.168 5.992 0 11.451-1.734 15.645-4.616l0.252-0.168 0.057-0.336c0.17-1.063 0.254-2.154 0.254-3.273 0-10.1-7.203-18.409-16.207-18.409-3.207 0-6.189 1.063-8.695 2.881C57.766 48.125 54.023 46.727 50 46.727L50 46.727zM50 48.293c9.707 0 17.669 9.008 17.669 20.284 0 1.118-0.113 2.21-0.254 3.272C62.773 74.928 56.697 76.857 50 76.857c-6.697 0-12.774-1.93-17.417-5.035-0.141-1.063-0.253-2.127-0.253-3.245C32.33 57.302 40.293 48.293 50 48.293L50 48.293zM30.473 49.245c2.701 0 5.233 0.839 7.428 2.322-4.389 4.029-7.146 10.184-7.146 17.011 0 1.314 0.084 2.602 0.281 3.86l0.056 0.308 0.113 0.112c-0.253 0-0.479 0.027-0.731 0.027-5.543 0-10.551-1.595-14.435-4.168-0.112-0.867-0.197-1.734-0.197-2.658C15.842 56.687 22.454 49.245 30.473 49.245L30.473 49.245zM69.527 49.245c8.02 0 14.631 7.442 14.631 16.814 0 0.924-0.084 1.791-0.197 2.658-3.883 2.573-8.891 4.168-14.434 4.168-0.225 0-0.479-0.027-0.703-0.027l0.084-0.084 0.057-0.308c0.197-1.26 0.281-2.574 0.281-3.889 0-6.827-2.758-12.981-7.146-17.011C64.293 50.084 66.826 49.245 69.527 49.245L69.527 49.245z" fill="black"></path></g></svg></g></svg></g></svg></g><defs><mask></mask></defs></svg><rect width="395.5199999999999" height="65.583089423521" fill="black" stroke="none" visibility="hidden"></rect></g></mask></svg><rect width="395.5199999999999" height="65.583089423521" fill="black" stroke="none" visibility="hidden"></rect></g></mask><linearGradient x1="0.054" x2="0.941" y1="0.5" y2="0.5" id="656d40a2-163b-4886-88bc-92e6ae5a9a0e"><stop stop-color="#0f3054" offset="0"></stop><stop stop-color="#3b8dcb" offset="0.498"></stop><stop stop-color="#0f3054" offset="1"></stop></linearGradient><rect width="395.5199999999999" height="65.583089423521" fill="url(#656d40a2-163b-4886-88bc-92e6ae5a9a0e)" mask="url(#a1d2afb3-3a07-48c6-961e-f7c13ebfd258)" data-fill-palette-color="accent"></rect></svg><rect width="395.5199999999999" height="65.583089423521" fill="none" stroke="none" visibility="hidden"></rect></g></svg></g></svg>