<svg xmlns="http://www.w3.org/2000/svg" viewBox="0 0 32 32" id="comment"><defs><linearGradient id="a" x1="11.063" x2="25.06" y1="29.312" y2="5.068" gradientUnits="userSpaceOnUse"><stop offset="0" stop-color="#4c46c8"></stop><stop offset="1" stop-color="#87bfff"></stop></linearGradient></defs><path fill="url(#a)" d="M22 16a1 1 0 0 1-1 1H11a1 1 0 0 1 0-2h10a1 1 0 0 1 1 1Zm-1-5H11a1 1 0 0 0 0 2h10a1 1 0 0 0 0-2Zm-5 8h-5a1 1 0 0 0 0 2h5a1 1 0 0 0 0-2Zm13.949 9.684a1 1 0 0 1-1.166 1.292l-6.531-1.451a14.059 14.059 0 1 1 5.823-5.462ZM26.135 22.4a11.967 11.967 0 1 0-4.491 4.184.989.989 0 0 1 .688-.094l5.161 1.147-1.462-4.385a1 1 0 0 1 .104-.852Z" data-name="Layer 2"></path></svg>